<mxfile host="app.diagrams.net" modified="2020-12-07T21:16:13.497Z" agent="5.0 (Macintosh; Intel Mac OS X 10_15_6) AppleWebKit/605.1.15 (KHTML, like Gecko) Version/14.0.1 Safari/605.1.15" etag="b5yeGCWdi1Xq8Y0zEC5y" version="13.9.8" type="github" pages="7">
  <diagram id="MIZSV_a9kjiavPeGqr3Y" name="MVC real">
    <mxGraphModel dx="1298" dy="865" grid="1" gridSize="10" guides="1" tooltips="1" connect="1" arrows="1" fold="1" page="1" pageScale="1" pageWidth="1169" pageHeight="827" math="0" shadow="0">
      <root>
        <mxCell id="0" />
        <mxCell id="1" parent="0" />
        <mxCell id="VqsCAGefibCW4bXpCJC7-43" value="Actor" style="shape=umlActor;verticalLabelPosition=bottom;verticalAlign=top;html=1;" vertex="1" parent="1">
          <mxGeometry x="310" y="650" width="50" height="90" as="geometry" />
        </mxCell>
        <mxCell id="VqsCAGefibCW4bXpCJC7-45" value="&lt;b&gt;Model&lt;/b&gt;" style="verticalLabelPosition=bottom;verticalAlign=top;html=1;shape=mxgraph.basic.patternFillRect;fillStyle=diagRev;step=5;fillStrokeWidth=0.2;fillStrokeColor=#dddddd;" vertex="1" parent="1">
          <mxGeometry x="705" y="350" width="205" height="204" as="geometry" />
        </mxCell>
        <mxCell id="VqsCAGefibCW4bXpCJC7-47" value="Storage" style="shape=cylinder3;whiteSpace=wrap;html=1;boundedLbl=1;backgroundOutline=1;size=15;" vertex="1" parent="1">
          <mxGeometry x="777.5" y="650" width="60" height="80" as="geometry" />
        </mxCell>
        <mxCell id="VqsCAGefibCW4bXpCJC7-48" value="&lt;b&gt;View&lt;/b&gt;" style="verticalLabelPosition=bottom;verticalAlign=top;html=1;shape=mxgraph.basic.patternFillRect;fillStyle=diagRev;step=5;fillStrokeWidth=0.2;fillStrokeColor=#dddddd;" vertex="1" parent="1">
          <mxGeometry x="230" y="350" width="210" height="204" as="geometry" />
        </mxCell>
        <mxCell id="VqsCAGefibCW4bXpCJC7-50" value="&lt;b&gt;Controller&lt;/b&gt;" style="verticalLabelPosition=bottom;verticalAlign=top;html=1;shape=mxgraph.basic.patternFillRect;fillStyle=diagRev;step=5;fillStrokeWidth=0.2;fillStrokeColor=#dddddd;" vertex="1" parent="1">
          <mxGeometry x="470" y="110" width="200" height="200" as="geometry" />
        </mxCell>
        <mxCell id="VqsCAGefibCW4bXpCJC7-52" value="" style="endArrow=classic;html=1;exitX=0.75;exitY=0.1;exitDx=0;exitDy=0;exitPerimeter=0;entryX=0.75;entryY=1;entryDx=0;entryDy=0;entryPerimeter=0;" edge="1" parent="1" source="VqsCAGefibCW4bXpCJC7-43" target="VqsCAGefibCW4bXpCJC7-48">
          <mxGeometry width="50" height="50" relative="1" as="geometry">
            <mxPoint x="540" y="440" as="sourcePoint" />
            <mxPoint x="590" y="390" as="targetPoint" />
          </mxGeometry>
        </mxCell>
        <mxCell id="VqsCAGefibCW4bXpCJC7-55" value="Interacts with view" style="edgeLabel;html=1;align=center;verticalAlign=middle;resizable=0;points=[];" vertex="1" connectable="0" parent="VqsCAGefibCW4bXpCJC7-52">
          <mxGeometry x="-0.1108" y="4" relative="1" as="geometry">
            <mxPoint x="8.44" y="-10.85" as="offset" />
          </mxGeometry>
        </mxCell>
        <mxCell id="VqsCAGefibCW4bXpCJC7-54" value="" style="endArrow=classic;html=1;exitX=1;exitY=0.5;exitDx=0;exitDy=0;exitPerimeter=0;entryX=0.25;entryY=1;entryDx=0;entryDy=0;entryPerimeter=0;" edge="1" parent="1" source="VqsCAGefibCW4bXpCJC7-48" target="VqsCAGefibCW4bXpCJC7-50">
          <mxGeometry width="50" height="50" relative="1" as="geometry">
            <mxPoint x="540" y="440" as="sourcePoint" />
            <mxPoint x="590" y="390" as="targetPoint" />
          </mxGeometry>
        </mxCell>
        <mxCell id="VqsCAGefibCW4bXpCJC7-81" value="Excecutes eventlisteners" style="edgeLabel;html=1;align=center;verticalAlign=middle;resizable=0;points=[];" vertex="1" connectable="0" parent="VqsCAGefibCW4bXpCJC7-54">
          <mxGeometry x="0.0321" y="1" relative="1" as="geometry">
            <mxPoint as="offset" />
          </mxGeometry>
        </mxCell>
        <mxCell id="VqsCAGefibCW4bXpCJC7-56" value="" style="endArrow=classic;html=1;exitX=0.25;exitY=1;exitDx=0;exitDy=0;exitPerimeter=0;entryX=0.25;entryY=0.1;entryDx=0;entryDy=0;entryPerimeter=0;" edge="1" parent="1" source="VqsCAGefibCW4bXpCJC7-48" target="VqsCAGefibCW4bXpCJC7-43">
          <mxGeometry width="50" height="50" relative="1" as="geometry">
            <mxPoint x="540" y="440" as="sourcePoint" />
            <mxPoint x="230" y="600" as="targetPoint" />
          </mxGeometry>
        </mxCell>
        <mxCell id="VqsCAGefibCW4bXpCJC7-57" value="Sees view" style="edgeLabel;html=1;align=center;verticalAlign=middle;resizable=0;points=[];" vertex="1" connectable="0" parent="VqsCAGefibCW4bXpCJC7-56">
          <mxGeometry x="0.2585" y="-2" relative="1" as="geometry">
            <mxPoint as="offset" />
          </mxGeometry>
        </mxCell>
        <mxCell id="VqsCAGefibCW4bXpCJC7-59" value="" style="endArrow=classic;html=1;exitX=0.75;exitY=1;exitDx=0;exitDy=0;exitPerimeter=0;entryX=0.855;entryY=0;entryDx=0;entryDy=4.35;entryPerimeter=0;" edge="1" parent="1" source="VqsCAGefibCW4bXpCJC7-45" target="VqsCAGefibCW4bXpCJC7-47">
          <mxGeometry width="50" height="50" relative="1" as="geometry">
            <mxPoint x="540" y="440" as="sourcePoint" />
            <mxPoint x="590" y="390" as="targetPoint" />
          </mxGeometry>
        </mxCell>
        <mxCell id="VqsCAGefibCW4bXpCJC7-60" value="Writes" style="edgeLabel;html=1;align=center;verticalAlign=middle;resizable=0;points=[];" vertex="1" connectable="0" parent="VqsCAGefibCW4bXpCJC7-59">
          <mxGeometry x="-0.0173" y="-1" relative="1" as="geometry">
            <mxPoint as="offset" />
          </mxGeometry>
        </mxCell>
        <mxCell id="VqsCAGefibCW4bXpCJC7-63" value="" style="endArrow=classic;html=1;entryX=0.25;entryY=1;entryDx=0;entryDy=0;entryPerimeter=0;" edge="1" parent="1" source="VqsCAGefibCW4bXpCJC7-47" target="VqsCAGefibCW4bXpCJC7-45">
          <mxGeometry width="50" height="50" relative="1" as="geometry">
            <mxPoint x="460" y="440" as="sourcePoint" />
            <mxPoint x="510" y="390" as="targetPoint" />
          </mxGeometry>
        </mxCell>
        <mxCell id="VqsCAGefibCW4bXpCJC7-64" value="Reads" style="edgeLabel;html=1;align=center;verticalAlign=middle;resizable=0;points=[];" vertex="1" connectable="0" parent="VqsCAGefibCW4bXpCJC7-63">
          <mxGeometry x="-0.1209" y="1" relative="1" as="geometry">
            <mxPoint as="offset" />
          </mxGeometry>
        </mxCell>
        <mxCell id="VqsCAGefibCW4bXpCJC7-65" value="" style="endArrow=none;dashed=1;html=1;dashPattern=1 3;strokeWidth=2;entryX=0.68;entryY=1.02;entryDx=0;entryDy=0;entryPerimeter=0;exitX=0;exitY=0.5;exitDx=0;exitDy=0;exitPerimeter=0;" edge="1" parent="1" source="VqsCAGefibCW4bXpCJC7-47" target="VqsCAGefibCW4bXpCJC7-50">
          <mxGeometry width="50" height="50" relative="1" as="geometry">
            <mxPoint x="460" y="440" as="sourcePoint" />
            <mxPoint x="510" y="390" as="targetPoint" />
          </mxGeometry>
        </mxCell>
        <mxCell id="VqsCAGefibCW4bXpCJC7-66" value="with JSON files" style="edgeLabel;html=1;align=center;verticalAlign=middle;resizable=0;points=[];" vertex="1" connectable="0" parent="VqsCAGefibCW4bXpCJC7-65">
          <mxGeometry x="0.2054" y="-1" relative="1" as="geometry">
            <mxPoint x="-15.08" y="-33.04" as="offset" />
          </mxGeometry>
        </mxCell>
        <mxCell id="VqsCAGefibCW4bXpCJC7-67" value="Matchmaking-model" style="html=1;" vertex="1" parent="1">
          <mxGeometry x="720" y="370" width="110" height="50" as="geometry" />
        </mxCell>
        <mxCell id="VqsCAGefibCW4bXpCJC7-68" value="Interest-model" style="html=1;" vertex="1" parent="1">
          <mxGeometry x="760" y="427" width="110" height="50" as="geometry" />
        </mxCell>
        <mxCell id="VqsCAGefibCW4bXpCJC7-69" value="User-model" style="html=1;" vertex="1" parent="1">
          <mxGeometry x="740" y="490" width="110" height="50" as="geometry" />
        </mxCell>
        <mxCell id="VqsCAGefibCW4bXpCJC7-70" value="API/Server" style="html=1;" vertex="1" parent="1">
          <mxGeometry x="515" y="180" width="110" height="50" as="geometry" />
        </mxCell>
        <mxCell id="VqsCAGefibCW4bXpCJC7-73" value="Matches" style="html=1;" vertex="1" parent="1">
          <mxGeometry x="240" y="360" width="70" height="33" as="geometry" />
        </mxCell>
        <mxCell id="VqsCAGefibCW4bXpCJC7-74" value="Index" style="html=1;" vertex="1" parent="1">
          <mxGeometry x="320" y="360" width="70" height="33" as="geometry" />
        </mxCell>
        <mxCell id="VqsCAGefibCW4bXpCJC7-75" value="New user" style="html=1;" vertex="1" parent="1">
          <mxGeometry x="240" y="397" width="70" height="33" as="geometry" />
        </mxCell>
        <mxCell id="VqsCAGefibCW4bXpCJC7-76" value="Settings" style="html=1;" vertex="1" parent="1">
          <mxGeometry x="320" y="397" width="70" height="33" as="geometry" />
        </mxCell>
        <mxCell id="VqsCAGefibCW4bXpCJC7-77" value="Sign up" style="html=1;" vertex="1" parent="1">
          <mxGeometry x="240" y="435.5" width="70" height="33" as="geometry" />
        </mxCell>
        <mxCell id="VqsCAGefibCW4bXpCJC7-78" value="Main" style="html=1;" vertex="1" parent="1">
          <mxGeometry x="320" y="435.5" width="70" height="33" as="geometry" />
        </mxCell>
        <mxCell id="VqsCAGefibCW4bXpCJC7-79" value="Interests" style="html=1;" vertex="1" parent="1">
          <mxGeometry x="240" y="477" width="70" height="33" as="geometry" />
        </mxCell>
        <mxCell id="VqsCAGefibCW4bXpCJC7-80" value="" style="endArrow=classic;html=1;exitX=0.75;exitY=1;exitDx=0;exitDy=0;exitPerimeter=0;entryX=0;entryY=0.25;entryDx=0;entryDy=0;entryPerimeter=0;" edge="1" parent="1" source="VqsCAGefibCW4bXpCJC7-50" target="VqsCAGefibCW4bXpCJC7-45">
          <mxGeometry width="50" height="50" relative="1" as="geometry">
            <mxPoint x="460" y="440" as="sourcePoint" />
            <mxPoint x="510" y="390" as="targetPoint" />
          </mxGeometry>
        </mxCell>
        <mxCell id="VqsCAGefibCW4bXpCJC7-85" value="Updates" style="edgeLabel;html=1;align=center;verticalAlign=middle;resizable=0;points=[];" vertex="1" connectable="0" parent="VqsCAGefibCW4bXpCJC7-80">
          <mxGeometry x="-0.2055" y="2" relative="1" as="geometry">
            <mxPoint y="1" as="offset" />
          </mxGeometry>
        </mxCell>
        <mxCell id="VqsCAGefibCW4bXpCJC7-82" value="Update and responds with data" style="endArrow=classic;html=1;exitX=0;exitY=0.25;exitDx=0;exitDy=0;exitPerimeter=0;entryX=0.25;entryY=0;entryDx=0;entryDy=0;entryPerimeter=0;" edge="1" parent="1" source="VqsCAGefibCW4bXpCJC7-50" target="VqsCAGefibCW4bXpCJC7-48">
          <mxGeometry width="50" height="50" relative="1" as="geometry">
            <mxPoint x="460" y="440" as="sourcePoint" />
            <mxPoint x="510" y="390" as="targetPoint" />
          </mxGeometry>
        </mxCell>
        <mxCell id="VqsCAGefibCW4bXpCJC7-84" value="" style="endArrow=classic;html=1;exitX=0.5;exitY=0;exitDx=0;exitDy=0;exitPerimeter=0;entryX=1;entryY=0.25;entryDx=0;entryDy=0;entryPerimeter=0;" edge="1" parent="1" source="VqsCAGefibCW4bXpCJC7-45" target="VqsCAGefibCW4bXpCJC7-50">
          <mxGeometry width="50" height="50" relative="1" as="geometry">
            <mxPoint x="460" y="440" as="sourcePoint" />
            <mxPoint x="510" y="390" as="targetPoint" />
          </mxGeometry>
        </mxCell>
        <mxCell id="VqsCAGefibCW4bXpCJC7-86" value="Notifies" style="edgeLabel;html=1;align=center;verticalAlign=middle;resizable=0;points=[];" vertex="1" connectable="0" parent="VqsCAGefibCW4bXpCJC7-84">
          <mxGeometry x="0.0264" y="-3" relative="1" as="geometry">
            <mxPoint x="-1" as="offset" />
          </mxGeometry>
        </mxCell>
        <mxCell id="d8kiemSU0Y5cawiHgnOT-1" value="Frontend" style="html=1;fontSize=12;" vertex="1" parent="1">
          <mxGeometry x="360" y="510" width="70" height="30" as="geometry" />
        </mxCell>
        <mxCell id="d8kiemSU0Y5cawiHgnOT-2" value="Backend" style="html=1;fontSize=12;" vertex="1" parent="1">
          <mxGeometry x="590" y="270" width="70" height="30" as="geometry" />
        </mxCell>
      </root>
    </mxGraphModel>
  </diagram>
  <diagram id="a6sN9S03dXwDlQEUAKQe" name="Page-2">
    <mxGraphModel dx="1298" dy="865" grid="1" gridSize="10" guides="1" tooltips="1" connect="1" arrows="1" fold="1" page="1" pageScale="1" pageWidth="1169" pageHeight="827" math="0" shadow="0">
      <root>
        <mxCell id="BCOyqamNlSZ7nN6PC0yC-0" />
        <mxCell id="BCOyqamNlSZ7nN6PC0yC-1" parent="BCOyqamNlSZ7nN6PC0yC-0" />
        <mxCell id="5aa_WG0PpK5DfDl5PxsW-0" value="Storage" style="shape=cylinder3;whiteSpace=wrap;html=1;boundedLbl=1;backgroundOutline=1;size=15;" vertex="1" parent="BCOyqamNlSZ7nN6PC0yC-1">
          <mxGeometry x="830" y="620" width="60" height="80" as="geometry" />
        </mxCell>
        <mxCell id="5aa_WG0PpK5DfDl5PxsW-1" value="Actor" style="shape=umlActor;verticalLabelPosition=bottom;verticalAlign=top;html=1;outlineConnect=0;" vertex="1" parent="BCOyqamNlSZ7nN6PC0yC-1">
          <mxGeometry x="300" y="600" width="30" height="60" as="geometry" />
        </mxCell>
        <mxCell id="5aa_WG0PpK5DfDl5PxsW-2" value="Main View" style="swimlane;fontStyle=1;align=center;verticalAlign=top;childLayout=stackLayout;horizontal=1;startSize=26;horizontalStack=0;resizeParent=1;resizeParentMax=0;resizeLast=0;collapsible=1;marginBottom=0;" vertex="1" parent="BCOyqamNlSZ7nN6PC0yC-1">
          <mxGeometry x="210" y="400" width="210" height="144" as="geometry">
            <mxRectangle x="210" y="400" width="90" height="26" as="alternateBounds" />
          </mxGeometry>
        </mxCell>
        <mxCell id="5aa_WG0PpK5DfDl5PxsW-3" value="- usernameMatch: string&#xa;- nameOfMatch: string&#xa;- genderOfMatch: string&#xa;- ageOfMatch: int&#xa;- InterestsOfMatch: string" style="text;strokeColor=none;fillColor=none;align=left;verticalAlign=top;spacingLeft=4;spacingRight=4;overflow=hidden;rotatable=0;points=[[0,0.5],[1,0.5]];portConstraint=eastwest;" vertex="1" parent="5aa_WG0PpK5DfDl5PxsW-2">
          <mxGeometry y="26" width="210" height="84" as="geometry" />
        </mxCell>
        <mxCell id="5aa_WG0PpK5DfDl5PxsW-4" value="" style="line;strokeWidth=1;fillColor=none;align=left;verticalAlign=middle;spacingTop=-1;spacingLeft=3;spacingRight=3;rotatable=0;labelPosition=right;points=[];portConstraint=eastwest;" vertex="1" parent="5aa_WG0PpK5DfDl5PxsW-2">
          <mxGeometry y="110" width="210" height="8" as="geometry" />
        </mxCell>
        <mxCell id="5aa_WG0PpK5DfDl5PxsW-5" value="+ doMatchmaking(): string " style="text;strokeColor=none;fillColor=none;align=left;verticalAlign=top;spacingLeft=4;spacingRight=4;overflow=hidden;rotatable=0;points=[[0,0.5],[1,0.5]];portConstraint=eastwest;" vertex="1" parent="5aa_WG0PpK5DfDl5PxsW-2">
          <mxGeometry y="118" width="210" height="26" as="geometry" />
        </mxCell>
        <mxCell id="5aa_WG0PpK5DfDl5PxsW-15" value="API/Controller" style="swimlane;fontStyle=1;align=center;verticalAlign=top;childLayout=stackLayout;horizontal=1;startSize=26;horizontalStack=0;resizeParent=1;resizeParentMax=0;resizeLast=0;collapsible=1;marginBottom=0;" vertex="1" parent="BCOyqamNlSZ7nN6PC0yC-1">
          <mxGeometry x="480" y="180" width="210" height="160" as="geometry">
            <mxRectangle x="210" y="400" width="90" height="26" as="alternateBounds" />
          </mxGeometry>
        </mxCell>
        <mxCell id="5aa_WG0PpK5DfDl5PxsW-16" value="+ userId: string&#xa;- potentialMatchUserId: string" style="text;strokeColor=none;fillColor=none;align=left;verticalAlign=top;spacingLeft=4;spacingRight=4;overflow=hidden;rotatable=0;points=[[0,0.5],[1,0.5]];portConstraint=eastwest;" vertex="1" parent="5aa_WG0PpK5DfDl5PxsW-15">
          <mxGeometry y="26" width="210" height="84" as="geometry" />
        </mxCell>
        <mxCell id="5aa_WG0PpK5DfDl5PxsW-17" value="" style="line;strokeWidth=1;fillColor=none;align=left;verticalAlign=middle;spacingTop=-1;spacingLeft=3;spacingRight=3;rotatable=0;labelPosition=right;points=[];portConstraint=eastwest;" vertex="1" parent="5aa_WG0PpK5DfDl5PxsW-15">
          <mxGeometry y="110" width="210" height="8" as="geometry" />
        </mxCell>
        <mxCell id="5aa_WG0PpK5DfDl5PxsW-18" value="+ verification()&#xa;+ validate potential match" style="text;strokeColor=none;fillColor=none;align=left;verticalAlign=top;spacingLeft=4;spacingRight=4;overflow=hidden;rotatable=0;points=[[0,0.5],[1,0.5]];portConstraint=eastwest;" vertex="1" parent="5aa_WG0PpK5DfDl5PxsW-15">
          <mxGeometry y="118" width="210" height="42" as="geometry" />
        </mxCell>
        <mxCell id="5aa_WG0PpK5DfDl5PxsW-19" value="Matchmaking Model" style="swimlane;fontStyle=1;align=center;verticalAlign=top;childLayout=stackLayout;horizontal=1;startSize=26;horizontalStack=0;resizeParent=1;resizeParentMax=0;resizeLast=0;collapsible=1;marginBottom=0;" vertex="1" parent="BCOyqamNlSZ7nN6PC0yC-1">
          <mxGeometry x="755" y="372" width="210" height="200" as="geometry">
            <mxRectangle x="210" y="400" width="90" height="26" as="alternateBounds" />
          </mxGeometry>
        </mxCell>
        <mxCell id="5aa_WG0PpK5DfDl5PxsW-20" value="- userId: array&#xa;- likes: array&#xa;- dislikes: array&#xa;- matches: array&#xa;- likedBy: array&#xa;- dislikedBy: array" style="text;strokeColor=none;fillColor=none;align=left;verticalAlign=top;spacingLeft=4;spacingRight=4;overflow=hidden;rotatable=0;points=[[0,0.5],[1,0.5]];portConstraint=eastwest;" vertex="1" parent="5aa_WG0PpK5DfDl5PxsW-19">
          <mxGeometry y="26" width="210" height="94" as="geometry" />
        </mxCell>
        <mxCell id="5aa_WG0PpK5DfDl5PxsW-21" value="" style="line;strokeWidth=1;fillColor=none;align=left;verticalAlign=middle;spacingTop=-1;spacingLeft=3;spacingRight=3;rotatable=0;labelPosition=right;points=[];portConstraint=eastwest;" vertex="1" parent="5aa_WG0PpK5DfDl5PxsW-19">
          <mxGeometry y="120" width="210" height="8" as="geometry" />
        </mxCell>
        <mxCell id="5aa_WG0PpK5DfDl5PxsW-22" value="- findMatch()&#xa;- checkForMatches()&#xa;- like()&#xa;- dislike()" style="text;strokeColor=none;fillColor=none;align=left;verticalAlign=top;spacingLeft=4;spacingRight=4;overflow=hidden;rotatable=0;points=[[0,0.5],[1,0.5]];portConstraint=eastwest;" vertex="1" parent="5aa_WG0PpK5DfDl5PxsW-19">
          <mxGeometry y="128" width="210" height="72" as="geometry" />
        </mxCell>
        <mxCell id="5aa_WG0PpK5DfDl5PxsW-24" value="" style="endArrow=classic;html=1;entryX=0.729;entryY=1.154;entryDx=0;entryDy=0;entryPerimeter=0;" edge="1" parent="BCOyqamNlSZ7nN6PC0yC-1" source="5aa_WG0PpK5DfDl5PxsW-1" target="5aa_WG0PpK5DfDl5PxsW-5">
          <mxGeometry width="50" height="50" relative="1" as="geometry">
            <mxPoint x="560" y="470" as="sourcePoint" />
            <mxPoint x="610" y="420" as="targetPoint" />
          </mxGeometry>
        </mxCell>
        <mxCell id="5aa_WG0PpK5DfDl5PxsW-25" value="Interacts (e.g. likes)" style="edgeLabel;html=1;align=center;verticalAlign=middle;resizable=0;points=[];" vertex="1" connectable="0" parent="5aa_WG0PpK5DfDl5PxsW-24">
          <mxGeometry x="0.0127" relative="1" as="geometry">
            <mxPoint as="offset" />
          </mxGeometry>
        </mxCell>
        <mxCell id="5aa_WG0PpK5DfDl5PxsW-26" value="Notify if a new match and show new potential match&amp;nbsp;" style="endArrow=classic;html=1;exitX=0.148;exitY=1;exitDx=0;exitDy=0;exitPerimeter=0;entryX=0;entryY=0.3333333333333333;entryDx=0;entryDy=0;entryPerimeter=0;" edge="1" parent="BCOyqamNlSZ7nN6PC0yC-1" source="5aa_WG0PpK5DfDl5PxsW-5" target="5aa_WG0PpK5DfDl5PxsW-1">
          <mxGeometry x="-0.8579" y="-83" width="50" height="50" relative="1" as="geometry">
            <mxPoint x="560" y="470" as="sourcePoint" />
            <mxPoint x="610" y="420" as="targetPoint" />
            <mxPoint as="offset" />
          </mxGeometry>
        </mxCell>
        <mxCell id="5aa_WG0PpK5DfDl5PxsW-27" value="Request (e.g. request like)" style="endArrow=classic;html=1;exitX=1;exitY=0.5;exitDx=0;exitDy=0;entryX=0.3;entryY=1.048;entryDx=0;entryDy=0;entryPerimeter=0;" edge="1" parent="BCOyqamNlSZ7nN6PC0yC-1" source="5aa_WG0PpK5DfDl5PxsW-3" target="5aa_WG0PpK5DfDl5PxsW-18">
          <mxGeometry width="50" height="50" relative="1" as="geometry">
            <mxPoint x="560" y="470" as="sourcePoint" />
            <mxPoint x="610" y="420" as="targetPoint" />
          </mxGeometry>
        </mxCell>
        <mxCell id="5aa_WG0PpK5DfDl5PxsW-29" value="Writes (e.g. new like)" style="endArrow=classic;html=1;exitX=0.243;exitY=1.028;exitDx=0;exitDy=0;exitPerimeter=0;entryX=0;entryY=0;entryDx=0;entryDy=15;entryPerimeter=0;" edge="1" parent="BCOyqamNlSZ7nN6PC0yC-1" source="5aa_WG0PpK5DfDl5PxsW-22" target="5aa_WG0PpK5DfDl5PxsW-0">
          <mxGeometry width="50" height="50" relative="1" as="geometry">
            <mxPoint x="560" y="470" as="sourcePoint" />
            <mxPoint x="610" y="420" as="targetPoint" />
          </mxGeometry>
        </mxCell>
        <mxCell id="5aa_WG0PpK5DfDl5PxsW-30" value="" style="endArrow=classic;html=1;exitX=1;exitY=0;exitDx=0;exitDy=15;exitPerimeter=0;entryX=0.767;entryY=1.056;entryDx=0;entryDy=0;entryPerimeter=0;" edge="1" parent="BCOyqamNlSZ7nN6PC0yC-1" source="5aa_WG0PpK5DfDl5PxsW-0" target="5aa_WG0PpK5DfDl5PxsW-22">
          <mxGeometry width="50" height="50" relative="1" as="geometry">
            <mxPoint x="560" y="470" as="sourcePoint" />
            <mxPoint x="610" y="420" as="targetPoint" />
          </mxGeometry>
        </mxCell>
        <mxCell id="5aa_WG0PpK5DfDl5PxsW-31" value="Reads (e.g. userlist)" style="edgeLabel;html=1;align=center;verticalAlign=middle;resizable=0;points=[];" vertex="1" connectable="0" parent="5aa_WG0PpK5DfDl5PxsW-30">
          <mxGeometry x="-0.0518" y="3" relative="1" as="geometry">
            <mxPoint y="1" as="offset" />
          </mxGeometry>
        </mxCell>
        <mxCell id="5aa_WG0PpK5DfDl5PxsW-32" value="" style="endArrow=classic;html=1;exitX=0.724;exitY=1.095;exitDx=0;exitDy=0;exitPerimeter=0;entryX=0.005;entryY=1.011;entryDx=0;entryDy=0;entryPerimeter=0;" edge="1" parent="BCOyqamNlSZ7nN6PC0yC-1" source="5aa_WG0PpK5DfDl5PxsW-18" target="5aa_WG0PpK5DfDl5PxsW-20">
          <mxGeometry width="50" height="50" relative="1" as="geometry">
            <mxPoint x="560" y="470" as="sourcePoint" />
            <mxPoint x="610" y="420" as="targetPoint" />
          </mxGeometry>
        </mxCell>
        <mxCell id="5aa_WG0PpK5DfDl5PxsW-33" value="Updates (e.g. with new like)" style="edgeLabel;html=1;align=center;verticalAlign=middle;resizable=0;points=[];" vertex="1" connectable="0" parent="5aa_WG0PpK5DfDl5PxsW-32">
          <mxGeometry x="-0.1932" y="-1" relative="1" as="geometry">
            <mxPoint as="offset" />
          </mxGeometry>
        </mxCell>
        <mxCell id="5aa_WG0PpK5DfDl5PxsW-34" value="" style="endArrow=classic;html=1;entryX=1;entryY=0.5;entryDx=0;entryDy=0;" edge="1" parent="BCOyqamNlSZ7nN6PC0yC-1" target="5aa_WG0PpK5DfDl5PxsW-16">
          <mxGeometry width="50" height="50" relative="1" as="geometry">
            <mxPoint x="860" y="370" as="sourcePoint" />
            <mxPoint x="610" y="420" as="targetPoint" />
          </mxGeometry>
        </mxCell>
        <mxCell id="5aa_WG0PpK5DfDl5PxsW-35" value="Notifies (e.g. with match and a new potential match)" style="edgeLabel;html=1;align=center;verticalAlign=middle;resizable=0;points=[];" vertex="1" connectable="0" parent="5aa_WG0PpK5DfDl5PxsW-34">
          <mxGeometry x="0.2733" relative="1" as="geometry">
            <mxPoint x="68.05" y="-12.46" as="offset" />
          </mxGeometry>
        </mxCell>
        <mxCell id="5aa_WG0PpK5DfDl5PxsW-36" value="" style="endArrow=classic;html=1;exitX=0;exitY=0.5;exitDx=0;exitDy=0;entryX=0.5;entryY=0;entryDx=0;entryDy=0;" edge="1" parent="BCOyqamNlSZ7nN6PC0yC-1" source="5aa_WG0PpK5DfDl5PxsW-16" target="5aa_WG0PpK5DfDl5PxsW-2">
          <mxGeometry width="50" height="50" relative="1" as="geometry">
            <mxPoint x="560" y="470" as="sourcePoint" />
            <mxPoint x="610" y="420" as="targetPoint" />
          </mxGeometry>
        </mxCell>
        <mxCell id="5aa_WG0PpK5DfDl5PxsW-37" value="Responds (e.g. with match and new potential match" style="edgeLabel;html=1;align=center;verticalAlign=middle;resizable=0;points=[];" vertex="1" connectable="0" parent="5aa_WG0PpK5DfDl5PxsW-36">
          <mxGeometry x="0.0607" y="-2" relative="1" as="geometry">
            <mxPoint x="-71.12" y="2.84" as="offset" />
          </mxGeometry>
        </mxCell>
      </root>
    </mxGraphModel>
  </diagram>
  <diagram id="8ovLGnVb15LKjvTVXuzV" name="Page-3">
    <mxGraphModel dx="1298" dy="865" grid="1" gridSize="10" guides="1" tooltips="1" connect="1" arrows="1" fold="1" page="1" pageScale="1" pageWidth="1169" pageHeight="827" math="0" shadow="0">
      <root>
        <mxCell id="Q0IwIYhQQtXgTCq41y1r-0" />
        <mxCell id="Q0IwIYhQQtXgTCq41y1r-1" parent="Q0IwIYhQQtXgTCq41y1r-0" />
        <mxCell id="Q0IwIYhQQtXgTCq41y1r-2" value="Actor" style="shape=umlActor;verticalLabelPosition=bottom;verticalAlign=top;html=1;" vertex="1" parent="Q0IwIYhQQtXgTCq41y1r-1">
          <mxGeometry x="570" y="580" width="30" height="60" as="geometry" />
        </mxCell>
        <mxCell id="Jhp6nqraJ2X-l6aGO7Jz-4" value="&lt;b&gt;Controller&lt;/b&gt;" style="html=1;fontSize=12;" vertex="1" parent="Q0IwIYhQQtXgTCq41y1r-1">
          <mxGeometry x="360" y="414" width="170" height="80" as="geometry" />
        </mxCell>
        <mxCell id="Jhp6nqraJ2X-l6aGO7Jz-5" value="&lt;b&gt;View&lt;/b&gt;" style="html=1;fontSize=12;" vertex="1" parent="Q0IwIYhQQtXgTCq41y1r-1">
          <mxGeometry x="650" y="414" width="170" height="80" as="geometry" />
        </mxCell>
        <mxCell id="Jhp6nqraJ2X-l6aGO7Jz-6" value="&lt;b&gt;Model&lt;/b&gt;" style="html=1;fontSize=12;" vertex="1" parent="Q0IwIYhQQtXgTCq41y1r-1">
          <mxGeometry x="500" y="240" width="170" height="80" as="geometry" />
        </mxCell>
        <mxCell id="HBL2cyt7TvfWzSy37j4n-0" value="Storage" style="shape=cylinder3;whiteSpace=wrap;html=1;boundedLbl=1;backgroundOutline=1;size=15;fontSize=12;" vertex="1" parent="Q0IwIYhQQtXgTCq41y1r-1">
          <mxGeometry x="555" y="120" width="60" height="80" as="geometry" />
        </mxCell>
        <mxCell id="HBL2cyt7TvfWzSy37j4n-1" value="" style="endArrow=classic;html=1;fontSize=12;entryX=0.5;entryY=1;entryDx=0;entryDy=0;" edge="1" parent="Q0IwIYhQQtXgTCq41y1r-1" target="Jhp6nqraJ2X-l6aGO7Jz-4">
          <mxGeometry width="50" height="50" relative="1" as="geometry">
            <mxPoint x="550" y="590" as="sourcePoint" />
            <mxPoint x="610" y="420" as="targetPoint" />
          </mxGeometry>
        </mxCell>
        <mxCell id="HBL2cyt7TvfWzSy37j4n-4" value="Interacts" style="edgeLabel;html=1;align=center;verticalAlign=middle;resizable=0;points=[];fontSize=12;" vertex="1" connectable="0" parent="HBL2cyt7TvfWzSy37j4n-1">
          <mxGeometry x="0.0657" y="2" relative="1" as="geometry">
            <mxPoint as="offset" />
          </mxGeometry>
        </mxCell>
        <mxCell id="HBL2cyt7TvfWzSy37j4n-2" value="" style="endArrow=classic;html=1;fontSize=12;exitX=0.5;exitY=1;exitDx=0;exitDy=0;" edge="1" parent="Q0IwIYhQQtXgTCq41y1r-1" source="Jhp6nqraJ2X-l6aGO7Jz-5">
          <mxGeometry width="50" height="50" relative="1" as="geometry">
            <mxPoint x="775" y="640" as="sourcePoint" />
            <mxPoint x="620" y="590" as="targetPoint" />
          </mxGeometry>
        </mxCell>
        <mxCell id="HBL2cyt7TvfWzSy37j4n-3" value="Sees" style="edgeLabel;html=1;align=center;verticalAlign=middle;resizable=0;points=[];fontSize=12;" vertex="1" connectable="0" parent="HBL2cyt7TvfWzSy37j4n-2">
          <mxGeometry x="0.0222" y="1" relative="1" as="geometry">
            <mxPoint as="offset" />
          </mxGeometry>
        </mxCell>
        <mxCell id="HBL2cyt7TvfWzSy37j4n-5" value="" style="endArrow=classic;html=1;fontSize=12;exitX=1;exitY=0.5;exitDx=0;exitDy=0;entryX=0;entryY=0.5;entryDx=0;entryDy=0;" edge="1" parent="Q0IwIYhQQtXgTCq41y1r-1" source="Jhp6nqraJ2X-l6aGO7Jz-4" target="Jhp6nqraJ2X-l6aGO7Jz-5">
          <mxGeometry width="50" height="50" relative="1" as="geometry">
            <mxPoint x="560" y="470" as="sourcePoint" />
            <mxPoint x="610" y="420" as="targetPoint" />
          </mxGeometry>
        </mxCell>
        <mxCell id="HBL2cyt7TvfWzSy37j4n-6" value="Updates" style="edgeLabel;html=1;align=center;verticalAlign=middle;resizable=0;points=[];fontSize=12;" vertex="1" connectable="0" parent="HBL2cyt7TvfWzSy37j4n-5">
          <mxGeometry x="-0.0667" relative="1" as="geometry">
            <mxPoint as="offset" />
          </mxGeometry>
        </mxCell>
        <mxCell id="HBL2cyt7TvfWzSy37j4n-7" value="" style="endArrow=classic;html=1;fontSize=12;exitX=0.25;exitY=0;exitDx=0;exitDy=0;entryX=0;entryY=0.5;entryDx=0;entryDy=0;" edge="1" parent="Q0IwIYhQQtXgTCq41y1r-1" source="Jhp6nqraJ2X-l6aGO7Jz-4" target="Jhp6nqraJ2X-l6aGO7Jz-6">
          <mxGeometry width="50" height="50" relative="1" as="geometry">
            <mxPoint x="560" y="470" as="sourcePoint" />
            <mxPoint x="610" y="420" as="targetPoint" />
          </mxGeometry>
        </mxCell>
        <mxCell id="HBL2cyt7TvfWzSy37j4n-8" value="Updates" style="edgeLabel;html=1;align=center;verticalAlign=middle;resizable=0;points=[];fontSize=12;" vertex="1" connectable="0" parent="HBL2cyt7TvfWzSy37j4n-7">
          <mxGeometry x="-0.0932" y="2" relative="1" as="geometry">
            <mxPoint as="offset" />
          </mxGeometry>
        </mxCell>
        <mxCell id="HBL2cyt7TvfWzSy37j4n-9" value="" style="endArrow=classic;html=1;fontSize=12;exitX=0.5;exitY=1;exitDx=0;exitDy=0;entryX=0.629;entryY=0;entryDx=0;entryDy=0;entryPerimeter=0;" edge="1" parent="Q0IwIYhQQtXgTCq41y1r-1" source="Jhp6nqraJ2X-l6aGO7Jz-6" target="Jhp6nqraJ2X-l6aGO7Jz-4">
          <mxGeometry width="50" height="50" relative="1" as="geometry">
            <mxPoint x="412.5" y="424" as="sourcePoint" />
            <mxPoint x="510" y="290" as="targetPoint" />
          </mxGeometry>
        </mxCell>
        <mxCell id="HBL2cyt7TvfWzSy37j4n-10" value="Notifies" style="edgeLabel;html=1;align=center;verticalAlign=middle;resizable=0;points=[];fontSize=12;" vertex="1" connectable="0" parent="HBL2cyt7TvfWzSy37j4n-9">
          <mxGeometry x="-0.0932" y="2" relative="1" as="geometry">
            <mxPoint as="offset" />
          </mxGeometry>
        </mxCell>
        <mxCell id="HBL2cyt7TvfWzSy37j4n-11" value="" style="endArrow=classic;html=1;fontSize=12;" edge="1" parent="Q0IwIYhQQtXgTCq41y1r-1">
          <mxGeometry width="50" height="50" relative="1" as="geometry">
            <mxPoint x="510" y="237" as="sourcePoint" />
            <mxPoint x="550" y="170" as="targetPoint" />
          </mxGeometry>
        </mxCell>
        <mxCell id="HBL2cyt7TvfWzSy37j4n-15" value="Writes" style="edgeLabel;html=1;align=center;verticalAlign=middle;resizable=0;points=[];fontSize=12;" vertex="1" connectable="0" parent="HBL2cyt7TvfWzSy37j4n-11">
          <mxGeometry x="-0.301" y="1" relative="1" as="geometry">
            <mxPoint as="offset" />
          </mxGeometry>
        </mxCell>
        <mxCell id="HBL2cyt7TvfWzSy37j4n-14" value="" style="endArrow=classic;html=1;fontSize=12;exitX=1;exitY=0;exitDx=0;exitDy=52.5;exitPerimeter=0;entryX=0.882;entryY=-0.037;entryDx=0;entryDy=0;entryPerimeter=0;" edge="1" parent="Q0IwIYhQQtXgTCq41y1r-1" source="HBL2cyt7TvfWzSy37j4n-0" target="Jhp6nqraJ2X-l6aGO7Jz-6">
          <mxGeometry width="50" height="50" relative="1" as="geometry">
            <mxPoint x="560" y="470" as="sourcePoint" />
            <mxPoint x="610" y="420" as="targetPoint" />
          </mxGeometry>
        </mxCell>
        <mxCell id="HBL2cyt7TvfWzSy37j4n-16" value="Reads" style="edgeLabel;html=1;align=center;verticalAlign=middle;resizable=0;points=[];fontSize=12;" vertex="1" connectable="0" parent="HBL2cyt7TvfWzSy37j4n-14">
          <mxGeometry x="0.0104" y="-2" relative="1" as="geometry">
            <mxPoint as="offset" />
          </mxGeometry>
        </mxCell>
      </root>
    </mxGraphModel>
  </diagram>
  <diagram id="2EcfbDv2dHWCMeqyYRyq" name="Class dia pre">
    <mxGraphModel dx="1298" dy="865" grid="1" gridSize="10" guides="1" tooltips="1" connect="1" arrows="1" fold="1" page="1" pageScale="1" pageWidth="1169" pageHeight="827" math="0" shadow="0">
      <root>
        <mxCell id="f0ERsUrv0wSTmgwQPiE7-0" />
        <mxCell id="f0ERsUrv0wSTmgwQPiE7-1" parent="f0ERsUrv0wSTmgwQPiE7-0" />
        <mxCell id="f0ERsUrv0wSTmgwQPiE7-2" value="User" style="swimlane;fontStyle=1;align=center;verticalAlign=top;childLayout=stackLayout;horizontal=1;startSize=26;horizontalStack=0;resizeParent=1;resizeParentMax=0;resizeLast=0;collapsible=1;marginBottom=0;" vertex="1" parent="f0ERsUrv0wSTmgwQPiE7-1">
          <mxGeometry x="160" y="120" width="160" height="250" as="geometry" />
        </mxCell>
        <mxCell id="f0ERsUrv0wSTmgwQPiE7-3" value="+ userId: Int&#xa;+ username: string&#xa;- password: string&#xa;+ firstName: string&#xa;+ lastName: string&#xa;+ birthday: int&#xa;+ gender: bool&#xa;+ interests: string" style="text;strokeColor=none;fillColor=none;align=left;verticalAlign=top;spacingLeft=4;spacingRight=4;overflow=hidden;rotatable=0;points=[[0,0.5],[1,0.5]];portConstraint=eastwest;" vertex="1" parent="f0ERsUrv0wSTmgwQPiE7-2">
          <mxGeometry y="26" width="160" height="124" as="geometry" />
        </mxCell>
        <mxCell id="f0ERsUrv0wSTmgwQPiE7-4" value="" style="line;strokeWidth=1;fillColor=none;align=left;verticalAlign=middle;spacingTop=-1;spacingLeft=3;spacingRight=3;rotatable=0;labelPosition=right;points=[];portConstraint=eastwest;" vertex="1" parent="f0ERsUrv0wSTmgwQPiE7-2">
          <mxGeometry y="150" width="160" height="8" as="geometry" />
        </mxCell>
        <mxCell id="f0ERsUrv0wSTmgwQPiE7-5" value="- like()&#xa;- dislike()&#xa;- undecided()&#xa;- updateInterests&#xa;- deleteUser" style="text;strokeColor=none;fillColor=none;align=left;verticalAlign=top;spacingLeft=4;spacingRight=4;overflow=hidden;rotatable=0;points=[[0,0.5],[1,0.5]];portConstraint=eastwest;" vertex="1" parent="f0ERsUrv0wSTmgwQPiE7-2">
          <mxGeometry y="158" width="160" height="92" as="geometry" />
        </mxCell>
        <mxCell id="f0ERsUrv0wSTmgwQPiE7-6" value="&lt;p style=&quot;margin: 0px ; margin-top: 4px ; text-align: center&quot;&gt;&lt;b&gt;FreeUser&lt;/b&gt;&lt;/p&gt;&lt;hr size=&quot;1&quot;&gt;&lt;p style=&quot;margin: 0px ; margin-left: 4px&quot;&gt;- numOfLikes: Int&lt;/p&gt;&lt;hr size=&quot;1&quot;&gt;&lt;p style=&quot;margin: 0px ; margin-left: 4px&quot;&gt;+ likesCountDown()&lt;/p&gt;" style="verticalAlign=top;align=left;overflow=fill;fontSize=12;fontFamily=Helvetica;html=1;" vertex="1" parent="f0ERsUrv0wSTmgwQPiE7-1">
          <mxGeometry x="160" y="460" width="160" height="90" as="geometry" />
        </mxCell>
        <mxCell id="f0ERsUrv0wSTmgwQPiE7-7" value="Extends" style="endArrow=block;endSize=16;endFill=0;html=1;exitX=0.5;exitY=0;exitDx=0;exitDy=0;entryX=0.5;entryY=1.022;entryDx=0;entryDy=0;entryPerimeter=0;" edge="1" parent="f0ERsUrv0wSTmgwQPiE7-1" source="f0ERsUrv0wSTmgwQPiE7-6" target="f0ERsUrv0wSTmgwQPiE7-5">
          <mxGeometry width="160" relative="1" as="geometry">
            <mxPoint x="500" y="440" as="sourcePoint" />
            <mxPoint x="660" y="440" as="targetPoint" />
          </mxGeometry>
        </mxCell>
        <mxCell id="f0ERsUrv0wSTmgwQPiE7-8" value="Matchmaking" style="swimlane;fontStyle=1;align=center;verticalAlign=top;childLayout=stackLayout;horizontal=1;startSize=26;horizontalStack=0;resizeParent=1;resizeParentMax=0;resizeLast=0;collapsible=1;marginBottom=0;" vertex="1" parent="f0ERsUrv0wSTmgwQPiE7-1">
          <mxGeometry x="505" y="120" width="160" height="150" as="geometry" />
        </mxCell>
        <mxCell id="f0ERsUrv0wSTmgwQPiE7-9" value="+ userId: int&#xa;+ likes: array&#xa;+ dislikes: array" style="text;strokeColor=none;fillColor=none;align=left;verticalAlign=top;spacingLeft=4;spacingRight=4;overflow=hidden;rotatable=0;points=[[0,0.5],[1,0.5]];portConstraint=eastwest;" vertex="1" parent="f0ERsUrv0wSTmgwQPiE7-8">
          <mxGeometry y="26" width="160" height="74" as="geometry" />
        </mxCell>
        <mxCell id="f0ERsUrv0wSTmgwQPiE7-10" value="" style="line;strokeWidth=1;fillColor=none;align=left;verticalAlign=middle;spacingTop=-1;spacingLeft=3;spacingRight=3;rotatable=0;labelPosition=right;points=[];portConstraint=eastwest;" vertex="1" parent="f0ERsUrv0wSTmgwQPiE7-8">
          <mxGeometry y="100" width="160" height="8" as="geometry" />
        </mxCell>
        <mxCell id="f0ERsUrv0wSTmgwQPiE7-11" value="+ findMatch()&#xa;+ checkForMatch()&#xa;" style="text;strokeColor=none;fillColor=none;align=left;verticalAlign=top;spacingLeft=4;spacingRight=4;overflow=hidden;rotatable=0;points=[[0,0.5],[1,0.5]];portConstraint=eastwest;" vertex="1" parent="f0ERsUrv0wSTmgwQPiE7-8">
          <mxGeometry y="108" width="160" height="42" as="geometry" />
        </mxCell>
        <mxCell id="f0ERsUrv0wSTmgwQPiE7-13" value="1" style="text;html=1;align=center;verticalAlign=middle;resizable=0;points=[];autosize=1;" vertex="1" parent="f0ERsUrv0wSTmgwQPiE7-1">
          <mxGeometry x="330" y="180" width="20" height="20" as="geometry" />
        </mxCell>
        <mxCell id="f0ERsUrv0wSTmgwQPiE7-14" value="" style="endArrow=block;endFill=1;html=1;edgeStyle=orthogonalEdgeStyle;align=left;verticalAlign=top;entryX=1;entryY=0.5;entryDx=0;entryDy=0;" edge="1" parent="f0ERsUrv0wSTmgwQPiE7-1" target="f0ERsUrv0wSTmgwQPiE7-3">
          <mxGeometry x="-1" relative="1" as="geometry">
            <mxPoint x="502" y="208" as="sourcePoint" />
            <mxPoint x="450" y="180" as="targetPoint" />
          </mxGeometry>
        </mxCell>
        <mxCell id="f0ERsUrv0wSTmgwQPiE7-16" value="Match" style="swimlane;fontStyle=1;align=center;verticalAlign=top;childLayout=stackLayout;horizontal=1;startSize=26;horizontalStack=0;resizeParent=1;resizeParentMax=0;resizeLast=0;collapsible=1;marginBottom=0;" vertex="1" parent="f0ERsUrv0wSTmgwQPiE7-1">
          <mxGeometry x="505" y="370" width="160" height="140" as="geometry" />
        </mxCell>
        <mxCell id="f0ERsUrv0wSTmgwQPiE7-17" value="+ matchId: Int&#xa;+ userId1: Int&#xa;+ userId2: Int" style="text;strokeColor=none;fillColor=none;align=left;verticalAlign=top;spacingLeft=4;spacingRight=4;overflow=hidden;rotatable=0;points=[[0,0.5],[1,0.5]];portConstraint=eastwest;" vertex="1" parent="f0ERsUrv0wSTmgwQPiE7-16">
          <mxGeometry y="26" width="160" height="54" as="geometry" />
        </mxCell>
        <mxCell id="f0ERsUrv0wSTmgwQPiE7-18" value="" style="line;strokeWidth=1;fillColor=none;align=left;verticalAlign=middle;spacingTop=-1;spacingLeft=3;spacingRight=3;rotatable=0;labelPosition=right;points=[];portConstraint=eastwest;" vertex="1" parent="f0ERsUrv0wSTmgwQPiE7-16">
          <mxGeometry y="80" width="160" height="8" as="geometry" />
        </mxCell>
        <mxCell id="f0ERsUrv0wSTmgwQPiE7-19" value="+ createMatch()&#xa;- deleteMatch()&#xa;- showMatch()" style="text;strokeColor=none;fillColor=none;align=left;verticalAlign=top;spacingLeft=4;spacingRight=4;overflow=hidden;rotatable=0;points=[[0,0.5],[1,0.5]];portConstraint=eastwest;" vertex="1" parent="f0ERsUrv0wSTmgwQPiE7-16">
          <mxGeometry y="88" width="160" height="52" as="geometry" />
        </mxCell>
        <mxCell id="f0ERsUrv0wSTmgwQPiE7-20" value="Use" style="endArrow=open;endSize=12;dashed=1;html=1;entryX=0.481;entryY=1.071;entryDx=0;entryDy=0;entryPerimeter=0;exitX=0.5;exitY=0;exitDx=0;exitDy=0;" edge="1" parent="f0ERsUrv0wSTmgwQPiE7-1" source="f0ERsUrv0wSTmgwQPiE7-16" target="f0ERsUrv0wSTmgwQPiE7-11">
          <mxGeometry width="160" relative="1" as="geometry">
            <mxPoint x="582" y="370" as="sourcePoint" />
            <mxPoint x="680" y="440" as="targetPoint" />
          </mxGeometry>
        </mxCell>
        <mxCell id="f0ERsUrv0wSTmgwQPiE7-22" value="1" style="text;html=1;align=center;verticalAlign=middle;resizable=0;points=[];autosize=1;" vertex="1" parent="f0ERsUrv0wSTmgwQPiE7-1">
          <mxGeometry x="480" y="180" width="20" height="20" as="geometry" />
        </mxCell>
        <mxCell id="f0ERsUrv0wSTmgwQPiE7-23" value="1...n" style="text;html=1;align=center;verticalAlign=middle;resizable=0;points=[];autosize=1;" vertex="1" parent="f0ERsUrv0wSTmgwQPiE7-1">
          <mxGeometry x="580" y="350" width="40" height="20" as="geometry" />
        </mxCell>
        <mxCell id="f0ERsUrv0wSTmgwQPiE7-24" value="1..2" style="text;html=1;align=center;verticalAlign=middle;resizable=0;points=[];autosize=1;" vertex="1" parent="f0ERsUrv0wSTmgwQPiE7-1">
          <mxGeometry x="580" y="270" width="40" height="20" as="geometry" />
        </mxCell>
      </root>
    </mxGraphModel>
  </diagram>
  <diagram name="Copy of Class dia pre" id="lW-ouUtJHLagYQsyFeOV">
    <mxGraphModel dx="1298" dy="865" grid="1" gridSize="10" guides="1" tooltips="1" connect="1" arrows="1" fold="1" page="1" pageScale="1" pageWidth="1169" pageHeight="827" math="0" shadow="0">
      <root>
        <mxCell id="0dTNIgbV1eJri4kwrfB3-0" />
        <mxCell id="0dTNIgbV1eJri4kwrfB3-1" parent="0dTNIgbV1eJri4kwrfB3-0" />
        <mxCell id="0dTNIgbV1eJri4kwrfB3-2" value="User" style="swimlane;fontStyle=1;align=center;verticalAlign=top;childLayout=stackLayout;horizontal=1;startSize=26;horizontalStack=0;resizeParent=1;resizeParentMax=0;resizeLast=0;collapsible=1;marginBottom=0;" vertex="1" parent="0dTNIgbV1eJri4kwrfB3-1">
          <mxGeometry x="160" y="120" width="160" height="250" as="geometry" />
        </mxCell>
        <mxCell id="0dTNIgbV1eJri4kwrfB3-3" value="+ username: string&#xa;- password: string&#xa;+ firstName: string&#xa;+ lastName: string&#xa;+ gender: string" style="text;strokeColor=none;fillColor=none;align=left;verticalAlign=top;spacingLeft=4;spacingRight=4;overflow=hidden;rotatable=0;points=[[0,0.5],[1,0.5]];portConstraint=eastwest;" vertex="1" parent="0dTNIgbV1eJri4kwrfB3-2">
          <mxGeometry y="26" width="160" height="124" as="geometry" />
        </mxCell>
        <mxCell id="0dTNIgbV1eJri4kwrfB3-4" value="" style="line;strokeWidth=1;fillColor=none;align=left;verticalAlign=middle;spacingTop=-1;spacingLeft=3;spacingRight=3;rotatable=0;labelPosition=right;points=[];portConstraint=eastwest;" vertex="1" parent="0dTNIgbV1eJri4kwrfB3-2">
          <mxGeometry y="150" width="160" height="8" as="geometry" />
        </mxCell>
        <mxCell id="0dTNIgbV1eJri4kwrfB3-5" value="- deleteUser()&#xa;- fullName()&#xa;+ getAge()" style="text;strokeColor=none;fillColor=none;align=left;verticalAlign=top;spacingLeft=4;spacingRight=4;overflow=hidden;rotatable=0;points=[[0,0.5],[1,0.5]];portConstraint=eastwest;" vertex="1" parent="0dTNIgbV1eJri4kwrfB3-2">
          <mxGeometry y="158" width="160" height="92" as="geometry" />
        </mxCell>
        <mxCell id="0dTNIgbV1eJri4kwrfB3-6" value="&lt;p style=&quot;margin: 0px ; margin-top: 4px ; text-align: center&quot;&gt;&lt;b&gt;FreeUser&lt;/b&gt;&lt;/p&gt;" style="verticalAlign=top;align=left;overflow=fill;fontSize=12;fontFamily=Helvetica;html=1;" vertex="1" parent="0dTNIgbV1eJri4kwrfB3-1">
          <mxGeometry x="160" y="460" width="160" height="90" as="geometry" />
        </mxCell>
        <mxCell id="0dTNIgbV1eJri4kwrfB3-7" value="Extends" style="endArrow=block;endSize=16;endFill=0;html=1;exitX=0.5;exitY=0;exitDx=0;exitDy=0;entryX=0.5;entryY=1.022;entryDx=0;entryDy=0;entryPerimeter=0;" edge="1" parent="0dTNIgbV1eJri4kwrfB3-1" source="0dTNIgbV1eJri4kwrfB3-6" target="0dTNIgbV1eJri4kwrfB3-5">
          <mxGeometry width="160" relative="1" as="geometry">
            <mxPoint x="500" y="440" as="sourcePoint" />
            <mxPoint x="660" y="440" as="targetPoint" />
          </mxGeometry>
        </mxCell>
        <mxCell id="0dTNIgbV1eJri4kwrfB3-8" value="Matchmaking" style="swimlane;fontStyle=1;align=center;verticalAlign=top;childLayout=stackLayout;horizontal=1;startSize=26;horizontalStack=0;resizeParent=1;resizeParentMax=0;resizeLast=0;collapsible=1;marginBottom=0;" vertex="1" parent="0dTNIgbV1eJri4kwrfB3-1">
          <mxGeometry x="580" y="120" width="160" height="210" as="geometry" />
        </mxCell>
        <mxCell id="0dTNIgbV1eJri4kwrfB3-9" value="+ username: string&#xa;+ matches: array&#xa;- likes: array&#xa;- dislikes: array&#xa;- likedBy: array&#xa;dislikedBy: array" style="text;strokeColor=none;fillColor=none;align=left;verticalAlign=top;spacingLeft=4;spacingRight=4;overflow=hidden;rotatable=0;points=[[0,0.5],[1,0.5]];portConstraint=eastwest;" vertex="1" parent="0dTNIgbV1eJri4kwrfB3-8">
          <mxGeometry y="26" width="160" height="94" as="geometry" />
        </mxCell>
        <mxCell id="0dTNIgbV1eJri4kwrfB3-10" value="" style="line;strokeWidth=1;fillColor=none;align=left;verticalAlign=middle;spacingTop=-1;spacingLeft=3;spacingRight=3;rotatable=0;labelPosition=right;points=[];portConstraint=eastwest;" vertex="1" parent="0dTNIgbV1eJri4kwrfB3-8">
          <mxGeometry y="120" width="160" height="8" as="geometry" />
        </mxCell>
        <mxCell id="0dTNIgbV1eJri4kwrfB3-11" value="+ like()&#xa;+ dislike()&#xa;+ findMatch()&#xa;+ checkForMatch()&#xa;- deleteMatch()" style="text;strokeColor=none;fillColor=none;align=left;verticalAlign=top;spacingLeft=4;spacingRight=4;overflow=hidden;rotatable=0;points=[[0,0.5],[1,0.5]];portConstraint=eastwest;" vertex="1" parent="0dTNIgbV1eJri4kwrfB3-8">
          <mxGeometry y="128" width="160" height="82" as="geometry" />
        </mxCell>
        <mxCell id="0dTNIgbV1eJri4kwrfB3-12" value="1" style="text;html=1;align=center;verticalAlign=middle;resizable=0;points=[];autosize=1;" vertex="1" parent="0dTNIgbV1eJri4kwrfB3-1">
          <mxGeometry x="330" y="180" width="20" height="20" as="geometry" />
        </mxCell>
        <mxCell id="0dTNIgbV1eJri4kwrfB3-19" value="1" style="text;html=1;align=center;verticalAlign=middle;resizable=0;points=[];autosize=1;" vertex="1" parent="0dTNIgbV1eJri4kwrfB3-1">
          <mxGeometry x="560" y="180" width="20" height="20" as="geometry" />
        </mxCell>
        <mxCell id="AcTo7NUtoX4PPfw-smHa-0" value="Interests" style="swimlane;fontStyle=1;align=center;verticalAlign=top;childLayout=stackLayout;horizontal=1;startSize=26;horizontalStack=0;resizeParent=1;resizeParentMax=0;resizeLast=0;collapsible=1;marginBottom=0;" vertex="1" parent="0dTNIgbV1eJri4kwrfB3-1">
          <mxGeometry x="580" y="370" width="160" height="104" as="geometry" />
        </mxCell>
        <mxCell id="AcTo7NUtoX4PPfw-smHa-13" value="+ username: string&#xa;+ interestsText: string&#xa;&#xa;" style="text;strokeColor=none;fillColor=none;align=left;verticalAlign=top;spacingLeft=4;spacingRight=4;overflow=hidden;rotatable=0;points=[[0,0.5],[1,0.5]];portConstraint=eastwest;" vertex="1" parent="AcTo7NUtoX4PPfw-smHa-0">
          <mxGeometry y="26" width="160" height="44" as="geometry" />
        </mxCell>
        <mxCell id="AcTo7NUtoX4PPfw-smHa-2" value="" style="line;strokeWidth=1;fillColor=none;align=left;verticalAlign=middle;spacingTop=-1;spacingLeft=3;spacingRight=3;rotatable=0;labelPosition=right;points=[];portConstraint=eastwest;" vertex="1" parent="AcTo7NUtoX4PPfw-smHa-0">
          <mxGeometry y="70" width="160" height="8" as="geometry" />
        </mxCell>
        <mxCell id="AcTo7NUtoX4PPfw-smHa-3" value="+ deleteInterests()" style="text;strokeColor=none;fillColor=none;align=left;verticalAlign=top;spacingLeft=4;spacingRight=4;overflow=hidden;rotatable=0;points=[[0,0.5],[1,0.5]];portConstraint=eastwest;" vertex="1" parent="AcTo7NUtoX4PPfw-smHa-0">
          <mxGeometry y="78" width="160" height="26" as="geometry" />
        </mxCell>
        <mxCell id="AcTo7NUtoX4PPfw-smHa-8" value="" style="endArrow=block;endFill=1;html=1;edgeStyle=orthogonalEdgeStyle;align=left;verticalAlign=top;entryX=1;entryY=0.5;entryDx=0;entryDy=0;exitX=-0.025;exitY=0.66;exitDx=0;exitDy=0;exitPerimeter=0;" edge="1" parent="0dTNIgbV1eJri4kwrfB3-1" source="0dTNIgbV1eJri4kwrfB3-9" target="0dTNIgbV1eJri4kwrfB3-3">
          <mxGeometry x="-1" relative="1" as="geometry">
            <mxPoint x="430" y="270" as="sourcePoint" />
            <mxPoint x="620" y="440" as="targetPoint" />
          </mxGeometry>
        </mxCell>
        <mxCell id="AcTo7NUtoX4PPfw-smHa-10" value="" style="endArrow=block;endFill=1;html=1;edgeStyle=orthogonalEdgeStyle;align=left;verticalAlign=top;entryX=1.013;entryY=0.782;entryDx=0;entryDy=0;entryPerimeter=0;exitX=-0.019;exitY=0.846;exitDx=0;exitDy=0;exitPerimeter=0;" edge="1" parent="0dTNIgbV1eJri4kwrfB3-1" source="AcTo7NUtoX4PPfw-smHa-13" target="0dTNIgbV1eJri4kwrfB3-3">
          <mxGeometry x="-1" relative="1" as="geometry">
            <mxPoint x="570" y="419" as="sourcePoint" />
            <mxPoint x="620" y="440" as="targetPoint" />
          </mxGeometry>
        </mxCell>
        <mxCell id="AcTo7NUtoX4PPfw-smHa-11" value="1" style="edgeLabel;resizable=0;html=1;align=left;verticalAlign=bottom;" connectable="0" vertex="1" parent="AcTo7NUtoX4PPfw-smHa-10">
          <mxGeometry x="-1" relative="1" as="geometry">
            <mxPoint x="-6.960000000000001" y="-4" as="offset" />
          </mxGeometry>
        </mxCell>
        <mxCell id="AcTo7NUtoX4PPfw-smHa-14" value="1" style="text;html=1;align=center;verticalAlign=middle;resizable=0;points=[];autosize=1;" vertex="1" parent="0dTNIgbV1eJri4kwrfB3-1">
          <mxGeometry x="330" y="220" width="20" height="20" as="geometry" />
        </mxCell>
      </root>
    </mxGraphModel>
  </diagram>
  <diagram id="55YKZhXFYv-vbnBuKj8m" name="Page-6">
    <mxGraphModel dx="1298" dy="865" grid="1" gridSize="10" guides="1" tooltips="1" connect="1" arrows="1" fold="1" page="1" pageScale="1" pageWidth="1169" pageHeight="827" math="0" shadow="0">
      <root>
        <mxCell id="5gxN9_sKvwGXJCtENIAC-0" />
        <mxCell id="5gxN9_sKvwGXJCtENIAC-1" parent="5gxN9_sKvwGXJCtENIAC-0" />
        <mxCell id="5gxN9_sKvwGXJCtENIAC-2" value="" style="verticalLabelPosition=bottom;verticalAlign=top;html=1;shape=mxgraph.basic.patternFillRect;fillStyle=diag;step=5;fillStrokeWidth=0.2;fillStrokeColor=#dddddd;" vertex="1" parent="5gxN9_sKvwGXJCtENIAC-1">
          <mxGeometry x="350" y="120" width="550" height="600" as="geometry" />
        </mxCell>
        <mxCell id="5gxN9_sKvwGXJCtENIAC-3" value="&lt;b&gt;User&lt;/b&gt;" style="shape=umlActor;verticalLabelPosition=bottom;verticalAlign=top;html=1;" vertex="1" parent="5gxN9_sKvwGXJCtENIAC-1">
          <mxGeometry x="230" y="320" width="30" height="60" as="geometry" />
        </mxCell>
        <mxCell id="5gxN9_sKvwGXJCtENIAC-6" value="Login" style="ellipse;whiteSpace=wrap;html=1;" vertex="1" parent="5gxN9_sKvwGXJCtENIAC-1">
          <mxGeometry x="370" y="140" width="140" height="70" as="geometry" />
        </mxCell>
        <mxCell id="5gxN9_sKvwGXJCtENIAC-7" value="&lt;b&gt;FreeUser&lt;/b&gt;" style="shape=umlActor;verticalLabelPosition=bottom;verticalAlign=top;html=1;" vertex="1" parent="5gxN9_sKvwGXJCtENIAC-1">
          <mxGeometry x="230" y="490" width="30" height="60" as="geometry" />
        </mxCell>
        <mxCell id="5gxN9_sKvwGXJCtENIAC-9" value="Extends" style="endArrow=block;endSize=16;endFill=0;html=1;" edge="1" parent="5gxN9_sKvwGXJCtENIAC-1">
          <mxGeometry width="160" relative="1" as="geometry">
            <mxPoint x="245" y="480" as="sourcePoint" />
            <mxPoint x="245" y="420" as="targetPoint" />
          </mxGeometry>
        </mxCell>
        <mxCell id="5gxN9_sKvwGXJCtENIAC-15" value="Creates/Update interests" style="ellipse;whiteSpace=wrap;html=1;" vertex="1" parent="5gxN9_sKvwGXJCtENIAC-1">
          <mxGeometry x="590" y="230" width="120" height="80" as="geometry" />
        </mxCell>
        <mxCell id="5gxN9_sKvwGXJCtENIAC-16" value="Sign up" style="ellipse;whiteSpace=wrap;html=1;" vertex="1" parent="5gxN9_sKvwGXJCtENIAC-1">
          <mxGeometry x="380" y="230" width="120" height="80" as="geometry" />
        </mxCell>
        <mxCell id="5gxN9_sKvwGXJCtENIAC-18" value="Settings/Update profile" style="ellipse;whiteSpace=wrap;html=1;" vertex="1" parent="5gxN9_sKvwGXJCtENIAC-1">
          <mxGeometry x="380" y="320" width="120" height="80" as="geometry" />
        </mxCell>
        <mxCell id="5gxN9_sKvwGXJCtENIAC-20" value="" style="endArrow=open;endFill=1;endSize=12;html=1;entryX=0.275;entryY=0.385;entryDx=0;entryDy=0;entryPerimeter=0;" edge="1" parent="5gxN9_sKvwGXJCtENIAC-1" target="5gxN9_sKvwGXJCtENIAC-2">
          <mxGeometry width="160" relative="1" as="geometry">
            <mxPoint x="590" y="278" as="sourcePoint" />
            <mxPoint x="660" y="440" as="targetPoint" />
          </mxGeometry>
        </mxCell>
        <mxCell id="5gxN9_sKvwGXJCtENIAC-21" value="Validates/Create token" style="ellipse;whiteSpace=wrap;html=1;" vertex="1" parent="5gxN9_sKvwGXJCtENIAC-1">
          <mxGeometry x="620" y="140" width="140" height="70" as="geometry" />
        </mxCell>
        <mxCell id="5gxN9_sKvwGXJCtENIAC-22" value="Extends" style="endArrow=open;endSize=12;dashed=1;html=1;entryX=0.293;entryY=0.097;entryDx=0;entryDy=0;entryPerimeter=0;exitX=0.493;exitY=0.092;exitDx=0;exitDy=0;exitPerimeter=0;" edge="1" parent="5gxN9_sKvwGXJCtENIAC-1" source="5gxN9_sKvwGXJCtENIAC-2" target="5gxN9_sKvwGXJCtENIAC-2">
          <mxGeometry width="160" relative="1" as="geometry">
            <mxPoint x="500" y="440" as="sourcePoint" />
            <mxPoint x="660" y="440" as="targetPoint" />
          </mxGeometry>
        </mxCell>
        <mxCell id="5gxN9_sKvwGXJCtENIAC-23" value="Extends" style="endArrow=open;endSize=12;dashed=1;html=1;entryX=0.269;entryY=0.23;entryDx=0;entryDy=0;entryPerimeter=0;exitX=0.493;exitY=0.092;exitDx=0;exitDy=0;exitPerimeter=0;" edge="1" parent="5gxN9_sKvwGXJCtENIAC-1" target="5gxN9_sKvwGXJCtENIAC-2">
          <mxGeometry width="160" relative="1" as="geometry">
            <mxPoint x="631.1500000000001" y="185.20000000000005" as="sourcePoint" />
            <mxPoint x="521.1500000000001" y="188.20000000000005" as="targetPoint" />
          </mxGeometry>
        </mxCell>
        <mxCell id="5gxN9_sKvwGXJCtENIAC-24" value="" style="shape=umlActor;verticalLabelPosition=bottom;verticalAlign=top;html=1;" vertex="1" parent="5gxN9_sKvwGXJCtENIAC-1">
          <mxGeometry x="930" y="340" width="30" height="60" as="geometry" />
        </mxCell>
        <mxCell id="5gxN9_sKvwGXJCtENIAC-28" value="" style="shape=umlActor;verticalLabelPosition=bottom;verticalAlign=top;html=1;" vertex="1" parent="5gxN9_sKvwGXJCtENIAC-1">
          <mxGeometry x="940" y="350" width="30" height="60" as="geometry" />
        </mxCell>
        <mxCell id="5gxN9_sKvwGXJCtENIAC-29" value="" style="shape=umlActor;verticalLabelPosition=bottom;verticalAlign=top;html=1;" vertex="1" parent="5gxN9_sKvwGXJCtENIAC-1">
          <mxGeometry x="950" y="360" width="30" height="60" as="geometry" />
        </mxCell>
        <mxCell id="5gxN9_sKvwGXJCtENIAC-30" value="" style="shape=umlActor;verticalLabelPosition=bottom;verticalAlign=top;html=1;" vertex="1" parent="5gxN9_sKvwGXJCtENIAC-1">
          <mxGeometry x="920" y="370" width="30" height="60" as="geometry" />
        </mxCell>
        <mxCell id="5gxN9_sKvwGXJCtENIAC-31" value="" style="shape=umlActor;verticalLabelPosition=bottom;verticalAlign=top;html=1;" vertex="1" parent="5gxN9_sKvwGXJCtENIAC-1">
          <mxGeometry x="950" y="384" width="30" height="60" as="geometry" />
        </mxCell>
        <mxCell id="5gxN9_sKvwGXJCtENIAC-33" value="Other users" style="text;align=center;fontStyle=1;verticalAlign=middle;spacingLeft=3;spacingRight=3;strokeColor=none;rotatable=0;points=[[0,0.5],[1,0.5]];portConstraint=eastwest;" vertex="1" parent="5gxN9_sKvwGXJCtENIAC-1">
          <mxGeometry x="915" y="440" width="80" height="26" as="geometry" />
        </mxCell>
        <mxCell id="5gxN9_sKvwGXJCtENIAC-34" value="" style="endArrow=open;endFill=1;endSize=12;html=1;entryX=0.273;entryY=0.247;entryDx=0;entryDy=0;entryPerimeter=0;" edge="1" parent="5gxN9_sKvwGXJCtENIAC-1" target="5gxN9_sKvwGXJCtENIAC-2">
          <mxGeometry width="160" relative="1" as="geometry">
            <mxPoint x="590" y="276" as="sourcePoint" />
            <mxPoint x="511.25" y="361" as="targetPoint" />
          </mxGeometry>
        </mxCell>
        <mxCell id="5gxN9_sKvwGXJCtENIAC-35" value="Potential match" style="ellipse;whiteSpace=wrap;html=1;" vertex="1" parent="5gxN9_sKvwGXJCtENIAC-1">
          <mxGeometry x="560" y="350" width="120" height="80" as="geometry" />
        </mxCell>
        <mxCell id="5gxN9_sKvwGXJCtENIAC-36" value="Sign out" style="ellipse;whiteSpace=wrap;html=1;" vertex="1" parent="5gxN9_sKvwGXJCtENIAC-1">
          <mxGeometry x="380" y="620" width="120" height="80" as="geometry" />
        </mxCell>
        <mxCell id="5gxN9_sKvwGXJCtENIAC-37" value="Delete profile" style="ellipse;whiteSpace=wrap;html=1;" vertex="1" parent="5gxN9_sKvwGXJCtENIAC-1">
          <mxGeometry x="740" y="235" width="140" height="70" as="geometry" />
        </mxCell>
        <mxCell id="5gxN9_sKvwGXJCtENIAC-38" value="Extends" style="endArrow=open;endSize=12;dashed=1;html=1;entryX=0.269;entryY=0.23;entryDx=0;entryDy=0;entryPerimeter=0;exitX=0.736;exitY=0.292;exitDx=0;exitDy=0;exitPerimeter=0;" edge="1" parent="5gxN9_sKvwGXJCtENIAC-1" source="5gxN9_sKvwGXJCtENIAC-2">
          <mxGeometry width="160" relative="1" as="geometry">
            <mxPoint x="633.2" y="297.20000000000005" as="sourcePoint" />
            <mxPoint x="500.00000000000006" y="370" as="targetPoint" />
          </mxGeometry>
        </mxCell>
        <mxCell id="5gxN9_sKvwGXJCtENIAC-39" value="See matches" style="ellipse;whiteSpace=wrap;html=1;" vertex="1" parent="5gxN9_sKvwGXJCtENIAC-1">
          <mxGeometry x="560" y="540" width="120" height="80" as="geometry" />
        </mxCell>
        <mxCell id="5gxN9_sKvwGXJCtENIAC-40" value="Delete match" style="ellipse;whiteSpace=wrap;html=1;" vertex="1" parent="5gxN9_sKvwGXJCtENIAC-1">
          <mxGeometry x="580" y="650" width="80" height="60" as="geometry" />
        </mxCell>
        <mxCell id="5gxN9_sKvwGXJCtENIAC-41" value="Like" style="ellipse;whiteSpace=wrap;html=1;" vertex="1" parent="5gxN9_sKvwGXJCtENIAC-1">
          <mxGeometry x="680" y="466" width="80" height="60" as="geometry" />
        </mxCell>
        <mxCell id="5gxN9_sKvwGXJCtENIAC-42" value="Undecided" style="ellipse;whiteSpace=wrap;html=1;" vertex="1" parent="5gxN9_sKvwGXJCtENIAC-1">
          <mxGeometry x="580" y="466" width="80" height="60" as="geometry" />
        </mxCell>
        <mxCell id="5gxN9_sKvwGXJCtENIAC-43" value="Dislike" style="ellipse;whiteSpace=wrap;html=1;" vertex="1" parent="5gxN9_sKvwGXJCtENIAC-1">
          <mxGeometry x="480" y="466" width="80" height="60" as="geometry" />
        </mxCell>
        <mxCell id="5gxN9_sKvwGXJCtENIAC-46" value="" style="endArrow=open;endSize=12;dashed=1;html=1;exitX=0.493;exitY=0.578;exitDx=0;exitDy=0;exitPerimeter=0;" edge="1" parent="5gxN9_sKvwGXJCtENIAC-1" source="5gxN9_sKvwGXJCtENIAC-2">
          <mxGeometry width="160" relative="1" as="geometry">
            <mxPoint x="500" y="430" as="sourcePoint" />
            <mxPoint x="620" y="430" as="targetPoint" />
          </mxGeometry>
        </mxCell>
        <mxCell id="5gxN9_sKvwGXJCtENIAC-48" value="" style="endArrow=none;dashed=1;html=1;exitX=0.315;exitY=0.575;exitDx=0;exitDy=0;exitPerimeter=0;entryX=0.491;entryY=0.553;entryDx=0;entryDy=0;entryPerimeter=0;" edge="1" parent="5gxN9_sKvwGXJCtENIAC-1" source="5gxN9_sKvwGXJCtENIAC-2" target="5gxN9_sKvwGXJCtENIAC-2">
          <mxGeometry width="50" height="50" relative="1" as="geometry">
            <mxPoint x="560" y="460" as="sourcePoint" />
            <mxPoint x="610" y="410" as="targetPoint" />
            <Array as="points">
              <mxPoint x="530" y="450" />
            </Array>
          </mxGeometry>
        </mxCell>
        <mxCell id="5gxN9_sKvwGXJCtENIAC-49" value="" style="endArrow=none;dashed=1;html=1;exitX=0.676;exitY=0.575;exitDx=0;exitDy=0;exitPerimeter=0;entryX=0.491;entryY=0.55;entryDx=0;entryDy=0;entryPerimeter=0;" edge="1" parent="5gxN9_sKvwGXJCtENIAC-1" source="5gxN9_sKvwGXJCtENIAC-2" target="5gxN9_sKvwGXJCtENIAC-2">
          <mxGeometry width="50" height="50" relative="1" as="geometry">
            <mxPoint x="533.25" y="475" as="sourcePoint" />
            <mxPoint x="630.05" y="461.79999999999995" as="targetPoint" />
            <Array as="points">
              <mxPoint x="710" y="450" />
            </Array>
          </mxGeometry>
        </mxCell>
        <mxCell id="5gxN9_sKvwGXJCtENIAC-52" value="" style="endArrow=open;endSize=12;dashed=1;html=1;exitX=0.485;exitY=0.88;exitDx=0;exitDy=0;exitPerimeter=0;entryX=0.485;entryY=0.838;entryDx=0;entryDy=0;entryPerimeter=0;" edge="1" parent="5gxN9_sKvwGXJCtENIAC-1" source="5gxN9_sKvwGXJCtENIAC-2" target="5gxN9_sKvwGXJCtENIAC-2">
          <mxGeometry width="160" relative="1" as="geometry">
            <mxPoint x="500" y="430" as="sourcePoint" />
            <mxPoint x="660" y="430" as="targetPoint" />
          </mxGeometry>
        </mxCell>
        <mxCell id="5gxN9_sKvwGXJCtENIAC-53" value="" style="endArrow=classic;html=1;entryX=1;entryY=0.5;entryDx=0;entryDy=0;" edge="1" parent="5gxN9_sKvwGXJCtENIAC-1" source="5gxN9_sKvwGXJCtENIAC-30" target="5gxN9_sKvwGXJCtENIAC-35">
          <mxGeometry width="50" height="50" relative="1" as="geometry">
            <mxPoint x="560" y="460" as="sourcePoint" />
            <mxPoint x="610" y="410" as="targetPoint" />
          </mxGeometry>
        </mxCell>
        <mxCell id="5gxN9_sKvwGXJCtENIAC-55" value="" style="endArrow=classic;html=1;entryX=0.6;entryY=0.757;entryDx=0;entryDy=0;entryPerimeter=0;" edge="1" parent="5gxN9_sKvwGXJCtENIAC-1" target="5gxN9_sKvwGXJCtENIAC-2">
          <mxGeometry width="50" height="50" relative="1" as="geometry">
            <mxPoint x="930" y="409.41176470588243" as="sourcePoint" />
            <mxPoint x="690" y="400" as="targetPoint" />
          </mxGeometry>
        </mxCell>
        <mxCell id="5gxN9_sKvwGXJCtENIAC-56" value="" style="endArrow=none;html=1;exitX=0.5;exitY=0.5;exitDx=0;exitDy=0;exitPerimeter=0;entryX=0.04;entryY=0.112;entryDx=0;entryDy=0;entryPerimeter=0;" edge="1" parent="5gxN9_sKvwGXJCtENIAC-1" source="5gxN9_sKvwGXJCtENIAC-3" target="5gxN9_sKvwGXJCtENIAC-2">
          <mxGeometry width="50" height="50" relative="1" as="geometry">
            <mxPoint x="560" y="460" as="sourcePoint" />
            <mxPoint x="610" y="410" as="targetPoint" />
          </mxGeometry>
        </mxCell>
        <mxCell id="5gxN9_sKvwGXJCtENIAC-57" value="" style="endArrow=none;html=1;exitX=0.5;exitY=0.5;exitDx=0;exitDy=0;exitPerimeter=0;entryX=0.053;entryY=0.26;entryDx=0;entryDy=0;entryPerimeter=0;" edge="1" parent="5gxN9_sKvwGXJCtENIAC-1" source="5gxN9_sKvwGXJCtENIAC-3" target="5gxN9_sKvwGXJCtENIAC-2">
          <mxGeometry width="50" height="50" relative="1" as="geometry">
            <mxPoint x="560" y="460" as="sourcePoint" />
            <mxPoint x="610" y="410" as="targetPoint" />
          </mxGeometry>
        </mxCell>
        <mxCell id="5gxN9_sKvwGXJCtENIAC-58" value="" style="endArrow=none;html=1;exitX=0.5;exitY=0.5;exitDx=0;exitDy=0;exitPerimeter=0;entryX=0.053;entryY=0.402;entryDx=0;entryDy=0;entryPerimeter=0;" edge="1" parent="5gxN9_sKvwGXJCtENIAC-1" source="5gxN9_sKvwGXJCtENIAC-3" target="5gxN9_sKvwGXJCtENIAC-2">
          <mxGeometry width="50" height="50" relative="1" as="geometry">
            <mxPoint x="560" y="460" as="sourcePoint" />
            <mxPoint x="610" y="410" as="targetPoint" />
          </mxGeometry>
        </mxCell>
        <mxCell id="5gxN9_sKvwGXJCtENIAC-59" value="" style="endArrow=none;html=1;exitX=0.5;exitY=0.5;exitDx=0;exitDy=0;exitPerimeter=0;entryX=0.405;entryY=0.492;entryDx=0;entryDy=0;entryPerimeter=0;" edge="1" parent="5gxN9_sKvwGXJCtENIAC-1" source="5gxN9_sKvwGXJCtENIAC-3" target="5gxN9_sKvwGXJCtENIAC-2">
          <mxGeometry width="50" height="50" relative="1" as="geometry">
            <mxPoint x="560" y="460" as="sourcePoint" />
            <mxPoint x="610" y="410" as="targetPoint" />
            <Array as="points">
              <mxPoint x="410" y="415" />
            </Array>
          </mxGeometry>
        </mxCell>
        <mxCell id="5gxN9_sKvwGXJCtENIAC-60" value="" style="endArrow=none;html=1;exitX=0.5;exitY=0.5;exitDx=0;exitDy=0;exitPerimeter=0;entryX=0.382;entryY=0.767;entryDx=0;entryDy=0;entryPerimeter=0;" edge="1" parent="5gxN9_sKvwGXJCtENIAC-1" source="5gxN9_sKvwGXJCtENIAC-3" target="5gxN9_sKvwGXJCtENIAC-2">
          <mxGeometry width="50" height="50" relative="1" as="geometry">
            <mxPoint x="560" y="460" as="sourcePoint" />
            <mxPoint x="610" y="410" as="targetPoint" />
          </mxGeometry>
        </mxCell>
        <mxCell id="5gxN9_sKvwGXJCtENIAC-61" value="" style="endArrow=none;html=1;exitX=0.5;exitY=0.5;exitDx=0;exitDy=0;exitPerimeter=0;entryX=0.109;entryY=0.838;entryDx=0;entryDy=0;entryPerimeter=0;" edge="1" parent="5gxN9_sKvwGXJCtENIAC-1" source="5gxN9_sKvwGXJCtENIAC-3" target="5gxN9_sKvwGXJCtENIAC-2">
          <mxGeometry width="50" height="50" relative="1" as="geometry">
            <mxPoint x="560" y="460" as="sourcePoint" />
            <mxPoint x="610" y="410" as="targetPoint" />
          </mxGeometry>
        </mxCell>
        <mxCell id="5gxN9_sKvwGXJCtENIAC-63" value="System boundaries" style="text;html=1;strokeColor=none;fillColor=none;align=center;verticalAlign=middle;whiteSpace=wrap;rounded=0;fontStyle=1;fontSize=20;" vertex="1" parent="5gxN9_sKvwGXJCtENIAC-1">
          <mxGeometry x="680" y="680" width="210" height="30" as="geometry" />
        </mxCell>
      </root>
    </mxGraphModel>
  </diagram>
  <diagram id="KGiU6Z8YoTlY1Kdeoize" name="Page-7">
    <mxGraphModel dx="1082" dy="721" grid="1" gridSize="10" guides="1" tooltips="1" connect="1" arrows="1" fold="1" page="1" pageScale="1" pageWidth="1169" pageHeight="827" math="0" shadow="0">
      <root>
        <mxCell id="Du-c1cY26iVatKTVK_DW-0" />
        <mxCell id="Du-c1cY26iVatKTVK_DW-1" parent="Du-c1cY26iVatKTVK_DW-0" />
        <mxCell id="dj7a359N9e0lTOL6UGZF-5" value="" style="shape=umlLifeline;participant=umlActor;perimeter=lifelinePerimeter;whiteSpace=wrap;html=1;container=1;collapsible=0;recursiveResize=0;verticalAlign=top;spacingTop=36;outlineConnect=0;fontSize=12;" vertex="1" parent="Du-c1cY26iVatKTVK_DW-1">
          <mxGeometry x="120" y="263" width="20" height="487" as="geometry" />
        </mxCell>
        <mxCell id="dj7a359N9e0lTOL6UGZF-50" value="" style="html=1;points=[];perimeter=orthogonalPerimeter;fontSize=13;" vertex="1" parent="dj7a359N9e0lTOL6UGZF-5">
          <mxGeometry x="5" y="57" width="10" height="403" as="geometry" />
        </mxCell>
        <mxCell id="dj7a359N9e0lTOL6UGZF-6" value="" style="shape=umlLifeline;participant=umlBoundary;perimeter=lifelinePerimeter;whiteSpace=wrap;html=1;container=1;collapsible=0;recursiveResize=0;verticalAlign=top;spacingTop=36;outlineConnect=0;fontSize=12;" vertex="1" parent="Du-c1cY26iVatKTVK_DW-1">
          <mxGeometry x="290" y="263" width="50" height="487" as="geometry" />
        </mxCell>
        <mxCell id="dj7a359N9e0lTOL6UGZF-7" value="" style="shape=umlLifeline;participant=umlEntity;perimeter=lifelinePerimeter;whiteSpace=wrap;html=1;container=1;collapsible=0;recursiveResize=0;verticalAlign=top;spacingTop=36;outlineConnect=0;fontSize=12;" vertex="1" parent="Du-c1cY26iVatKTVK_DW-1">
          <mxGeometry x="650" y="263" width="40" height="487" as="geometry" />
        </mxCell>
        <mxCell id="dj7a359N9e0lTOL6UGZF-30" value="" style="html=1;points=[];perimeter=orthogonalPerimeter;fontSize=12;" vertex="1" parent="dj7a359N9e0lTOL6UGZF-7">
          <mxGeometry x="15" y="151" width="10" height="149" as="geometry" />
        </mxCell>
        <mxCell id="dj7a359N9e0lTOL6UGZF-43" value="" style="html=1;points=[];perimeter=orthogonalPerimeter;fontSize=13;" vertex="1" parent="dj7a359N9e0lTOL6UGZF-7">
          <mxGeometry x="15" y="357" width="10" height="53" as="geometry" />
        </mxCell>
        <mxCell id="dj7a359N9e0lTOL6UGZF-49" value="" style="html=1;points=[];perimeter=orthogonalPerimeter;fontSize=13;" vertex="1" parent="dj7a359N9e0lTOL6UGZF-7">
          <mxGeometry x="15" y="151" width="10" height="259" as="geometry" />
        </mxCell>
        <mxCell id="dj7a359N9e0lTOL6UGZF-8" value="" style="shape=umlLifeline;participant=umlControl;perimeter=lifelinePerimeter;whiteSpace=wrap;html=1;container=1;collapsible=0;recursiveResize=0;verticalAlign=top;spacingTop=36;outlineConnect=0;fontSize=12;" vertex="1" parent="Du-c1cY26iVatKTVK_DW-1">
          <mxGeometry x="490" y="263" width="40" height="487" as="geometry" />
        </mxCell>
        <mxCell id="dj7a359N9e0lTOL6UGZF-40" value="" style="html=1;points=[];perimeter=orthogonalPerimeter;fontSize=13;" vertex="1" parent="dj7a359N9e0lTOL6UGZF-8">
          <mxGeometry x="15" y="347" width="10" height="80" as="geometry" />
        </mxCell>
        <mxCell id="dj7a359N9e0lTOL6UGZF-10" value="" style="html=1;points=[];perimeter=orthogonalPerimeter;fontSize=12;" vertex="1" parent="Du-c1cY26iVatKTVK_DW-1">
          <mxGeometry x="310" y="334" width="10" height="366" as="geometry" />
        </mxCell>
        <mxCell id="dj7a359N9e0lTOL6UGZF-11" value="1. Likes (button)" style="html=1;verticalAlign=bottom;endArrow=block;entryX=0;entryY=0;fontSize=12;" edge="1" target="dj7a359N9e0lTOL6UGZF-10" parent="Du-c1cY26iVatKTVK_DW-1">
          <mxGeometry relative="1" as="geometry">
            <mxPoint x="140" y="334" as="sourcePoint" />
          </mxGeometry>
        </mxCell>
        <mxCell id="dj7a359N9e0lTOL6UGZF-12" value="12. Notifies user if match" style="html=1;verticalAlign=bottom;endArrow=open;dashed=1;endSize=8;exitX=-0.033;exitY=0.99;fontSize=12;exitDx=0;exitDy=0;exitPerimeter=0;" edge="1" source="dj7a359N9e0lTOL6UGZF-10" parent="Du-c1cY26iVatKTVK_DW-1">
          <mxGeometry relative="1" as="geometry">
            <mxPoint x="140" y="696" as="targetPoint" />
            <Array as="points">
              <mxPoint x="290" y="696" />
            </Array>
          </mxGeometry>
        </mxCell>
        <mxCell id="dj7a359N9e0lTOL6UGZF-15" value="" style="html=1;points=[];perimeter=orthogonalPerimeter;fontSize=12;" vertex="1" parent="Du-c1cY26iVatKTVK_DW-1">
          <mxGeometry x="505" y="374" width="10" height="166" as="geometry" />
        </mxCell>
        <mxCell id="dj7a359N9e0lTOL6UGZF-16" value="&lt;font style=&quot;font-size: 9px&quot;&gt;2. Handle event&lt;br&gt;(Sends potential match username&lt;br&gt;&amp;nbsp;to controller, POST-req)&lt;/font&gt;" style="html=1;verticalAlign=bottom;endArrow=block;entryX=0;entryY=0;fontSize=12;" edge="1" target="dj7a359N9e0lTOL6UGZF-15" parent="Du-c1cY26iVatKTVK_DW-1">
          <mxGeometry x="0.0817" y="5" relative="1" as="geometry">
            <mxPoint x="320" y="376" as="sourcePoint" />
            <mxPoint as="offset" />
          </mxGeometry>
        </mxCell>
        <mxCell id="dj7a359N9e0lTOL6UGZF-18" value="Storage" style="shape=umlLifeline;perimeter=lifelinePerimeter;whiteSpace=wrap;html=1;container=1;collapsible=0;recursiveResize=0;outlineConnect=0;fontSize=12;" vertex="1" parent="Du-c1cY26iVatKTVK_DW-1">
          <mxGeometry x="780" y="264" width="100" height="486" as="geometry" />
        </mxCell>
        <mxCell id="dj7a359N9e0lTOL6UGZF-33" value="" style="html=1;points=[];perimeter=orthogonalPerimeter;fontSize=12;" vertex="1" parent="dj7a359N9e0lTOL6UGZF-18">
          <mxGeometry x="45" y="156" width="10" height="84" as="geometry" />
        </mxCell>
        <mxCell id="dj7a359N9e0lTOL6UGZF-48" value="" style="html=1;points=[];perimeter=orthogonalPerimeter;fontSize=13;" vertex="1" parent="dj7a359N9e0lTOL6UGZF-18">
          <mxGeometry x="45" y="156" width="10" height="214" as="geometry" />
        </mxCell>
        <mxCell id="dj7a359N9e0lTOL6UGZF-26" value="" style="html=1;points=[];perimeter=orthogonalPerimeter;fontSize=12;" vertex="1" parent="Du-c1cY26iVatKTVK_DW-1">
          <mxGeometry x="505" y="394" width="10" height="226" as="geometry" />
        </mxCell>
        <mxCell id="dj7a359N9e0lTOL6UGZF-27" value="3. Validates JWT-token" style="edgeStyle=orthogonalEdgeStyle;html=1;align=left;spacingLeft=2;endArrow=block;rounded=0;entryX=1;entryY=0;fontSize=12;" edge="1" target="dj7a359N9e0lTOL6UGZF-26" parent="Du-c1cY26iVatKTVK_DW-1">
          <mxGeometry relative="1" as="geometry">
            <mxPoint x="510" y="374" as="sourcePoint" />
            <Array as="points">
              <mxPoint x="535" y="374" />
            </Array>
          </mxGeometry>
        </mxCell>
        <mxCell id="dj7a359N9e0lTOL6UGZF-31" value="4. Create like ( like() )" style="html=1;verticalAlign=bottom;endArrow=block;entryX=0;entryY=0;fontSize=12;" edge="1" target="dj7a359N9e0lTOL6UGZF-30" parent="Du-c1cY26iVatKTVK_DW-1">
          <mxGeometry relative="1" as="geometry">
            <mxPoint x="520" y="414" as="sourcePoint" />
          </mxGeometry>
        </mxCell>
        <mxCell id="dj7a359N9e0lTOL6UGZF-32" value="6. Returns result" style="html=1;verticalAlign=bottom;endArrow=open;dashed=1;endSize=8;exitX=0;exitY=0.95;fontSize=12;" edge="1" source="dj7a359N9e0lTOL6UGZF-30" parent="Du-c1cY26iVatKTVK_DW-1">
          <mxGeometry relative="1" as="geometry">
            <mxPoint x="520" y="556" as="targetPoint" />
          </mxGeometry>
        </mxCell>
        <mxCell id="dj7a359N9e0lTOL6UGZF-34" value="Write" style="html=1;verticalAlign=bottom;endArrow=block;entryX=0;entryY=0;fontSize=12;" edge="1" target="dj7a359N9e0lTOL6UGZF-33" parent="Du-c1cY26iVatKTVK_DW-1">
          <mxGeometry relative="1" as="geometry">
            <mxPoint x="680" y="420" as="sourcePoint" />
          </mxGeometry>
        </mxCell>
        <mxCell id="dj7a359N9e0lTOL6UGZF-37" value="&lt;font style=&quot;font-size: 8px&quot;&gt;5.&lt;br&gt;Check for match ( checkForMatch() )&lt;/font&gt;" style="html=1;verticalAlign=bottom;endArrow=block;fontSize=12;exitX=1.3;exitY=0.402;exitDx=0;exitDy=0;exitPerimeter=0;entryX=-0.02;entryY=0.477;entryDx=0;entryDy=0;entryPerimeter=0;" edge="1" parent="Du-c1cY26iVatKTVK_DW-1" source="dj7a359N9e0lTOL6UGZF-26" target="dj7a359N9e0lTOL6UGZF-30">
          <mxGeometry width="80" relative="1" as="geometry">
            <mxPoint x="515" y="450" as="sourcePoint" />
            <mxPoint x="661" y="467" as="targetPoint" />
          </mxGeometry>
        </mxCell>
        <mxCell id="dj7a359N9e0lTOL6UGZF-35" value="Read" style="html=1;verticalAlign=bottom;endArrow=open;dashed=1;endSize=8;exitX=0;exitY=0.95;fontSize=12;" edge="1" source="dj7a359N9e0lTOL6UGZF-33" parent="Du-c1cY26iVatKTVK_DW-1">
          <mxGeometry relative="1" as="geometry">
            <mxPoint x="680" y="500" as="targetPoint" />
          </mxGeometry>
        </mxCell>
        <mxCell id="dj7a359N9e0lTOL6UGZF-39" value="Returns result" style="html=1;verticalAlign=bottom;endArrow=open;dashed=1;endSize=8;fontSize=13;entryX=1.3;entryY=0.669;entryDx=0;entryDy=0;entryPerimeter=0;" edge="1" parent="Du-c1cY26iVatKTVK_DW-1" target="dj7a359N9e0lTOL6UGZF-10">
          <mxGeometry relative="1" as="geometry">
            <mxPoint x="505" y="580" as="sourcePoint" />
            <mxPoint x="425" y="580" as="targetPoint" />
          </mxGeometry>
        </mxCell>
        <mxCell id="dj7a359N9e0lTOL6UGZF-41" value="&lt;font style=&quot;font-size: 10px&quot;&gt;8. Finds potential match (GET-req)&lt;/font&gt;" style="html=1;verticalAlign=bottom;endArrow=block;entryX=0;entryY=0;fontSize=13;" edge="1" target="dj7a359N9e0lTOL6UGZF-40" parent="Du-c1cY26iVatKTVK_DW-1">
          <mxGeometry relative="1" as="geometry">
            <mxPoint x="320" y="610" as="sourcePoint" />
          </mxGeometry>
        </mxCell>
        <mxCell id="dj7a359N9e0lTOL6UGZF-44" value="&lt;font style=&quot;font-size: 10px&quot;&gt;9. Finds match ( findMatch() )&lt;/font&gt;" style="html=1;verticalAlign=bottom;endArrow=block;entryX=0;entryY=0;fontSize=13;" edge="1" target="dj7a359N9e0lTOL6UGZF-43" parent="Du-c1cY26iVatKTVK_DW-1">
          <mxGeometry relative="1" as="geometry">
            <mxPoint x="520" y="620" as="sourcePoint" />
          </mxGeometry>
        </mxCell>
        <mxCell id="dj7a359N9e0lTOL6UGZF-47" value="Read" style="endArrow=open;endSize=12;dashed=1;html=1;fontSize=13;entryX=1.05;entryY=0.123;entryDx=0;entryDy=0;entryPerimeter=0;" edge="1" parent="Du-c1cY26iVatKTVK_DW-1" target="dj7a359N9e0lTOL6UGZF-43">
          <mxGeometry width="160" relative="1" as="geometry">
            <mxPoint x="820" y="627" as="sourcePoint" />
            <mxPoint x="620" y="590" as="targetPoint" />
          </mxGeometry>
        </mxCell>
        <mxCell id="dj7a359N9e0lTOL6UGZF-45" value="&lt;font style=&quot;font-size: 10px&quot;&gt;10. Returns potential match data&lt;/font&gt;" style="html=1;verticalAlign=bottom;endArrow=open;dashed=1;endSize=8;exitX=0;exitY=0.95;fontSize=13;entryX=1.05;entryY=0.939;entryDx=0;entryDy=0;entryPerimeter=0;" edge="1" source="dj7a359N9e0lTOL6UGZF-43" parent="Du-c1cY26iVatKTVK_DW-1" target="dj7a359N9e0lTOL6UGZF-51">
          <mxGeometry x="0.0353" y="-11" relative="1" as="geometry">
            <mxPoint x="600" y="696" as="targetPoint" />
            <mxPoint as="offset" />
          </mxGeometry>
        </mxCell>
        <mxCell id="dj7a359N9e0lTOL6UGZF-42" value="&lt;font style=&quot;font-size: 9px&quot;&gt;11. Updates view with new potential match&lt;/font&gt;" style="html=1;verticalAlign=bottom;endArrow=open;dashed=1;endSize=8;exitX=0;exitY=0.95;fontSize=13;" edge="1" source="dj7a359N9e0lTOL6UGZF-40" parent="Du-c1cY26iVatKTVK_DW-1">
          <mxGeometry relative="1" as="geometry">
            <mxPoint x="320" y="686" as="targetPoint" />
          </mxGeometry>
        </mxCell>
        <mxCell id="dj7a359N9e0lTOL6UGZF-51" value="" style="html=1;points=[];perimeter=orthogonalPerimeter;fontSize=13;" vertex="1" parent="Du-c1cY26iVatKTVK_DW-1">
          <mxGeometry x="505" y="374" width="10" height="316" as="geometry" />
        </mxCell>
        <mxCell id="dj7a359N9e0lTOL6UGZF-53" value="Sequence Diagram processing a like-request " style="text;align=center;fontStyle=1;verticalAlign=middle;spacingLeft=3;spacingRight=3;strokeColor=none;rotatable=0;points=[[0,0.5],[1,0.5]];portConstraint=eastwest;fontSize=15;" vertex="1" parent="Du-c1cY26iVatKTVK_DW-1">
          <mxGeometry x="240" y="190" width="80" height="26" as="geometry" />
        </mxCell>
        <mxCell id="dj7a359N9e0lTOL6UGZF-56" value="User" style="text;align=center;fontStyle=0;verticalAlign=middle;spacingLeft=3;spacingRight=3;strokeColor=none;rotatable=0;points=[[0,0.5],[1,0.5]];portConstraint=eastwest;fontSize=13;" vertex="1" parent="Du-c1cY26iVatKTVK_DW-1">
          <mxGeometry x="90" y="230" width="80" height="26" as="geometry" />
        </mxCell>
        <mxCell id="dj7a359N9e0lTOL6UGZF-57" value="View" style="text;align=center;fontStyle=0;verticalAlign=middle;spacingLeft=3;spacingRight=3;strokeColor=none;rotatable=0;points=[[0,0.5],[1,0.5]];portConstraint=eastwest;fontSize=13;" vertex="1" parent="Du-c1cY26iVatKTVK_DW-1">
          <mxGeometry x="280" y="230" width="80" height="26" as="geometry" />
        </mxCell>
        <mxCell id="dj7a359N9e0lTOL6UGZF-58" value="Controller" style="text;align=center;fontStyle=0;verticalAlign=middle;spacingLeft=3;spacingRight=3;strokeColor=none;rotatable=0;points=[[0,0.5],[1,0.5]];portConstraint=eastwest;fontSize=13;" vertex="1" parent="Du-c1cY26iVatKTVK_DW-1">
          <mxGeometry x="470" y="230" width="80" height="26" as="geometry" />
        </mxCell>
        <mxCell id="dj7a359N9e0lTOL6UGZF-59" value="Model" style="text;align=center;fontStyle=0;verticalAlign=middle;spacingLeft=3;spacingRight=3;strokeColor=none;rotatable=0;points=[[0,0.5],[1,0.5]];portConstraint=eastwest;fontSize=13;" vertex="1" parent="Du-c1cY26iVatKTVK_DW-1">
          <mxGeometry x="630" y="230" width="80" height="26" as="geometry" />
        </mxCell>
      </root>
    </mxGraphModel>
  </diagram>
</mxfile>
